<svg width="1278" height="354" viewBox="0 0 1278 354" fill="none" xmlns="http://www.w3.org/2000/svg">
<path d="M120.78 186.94C103.2 193.08 85.06 197.45 67.5 203.71C58.88 206.71 50.42 210.12 41.8 213.12C40.3007 213.585 38.9156 214.359 37.734 215.393C36.5524 216.426 35.6006 217.696 34.94 219.12C28.8 230.66 23.14 242.57 15.36 253.12C12.83 256.3 8.35999 259.92 5.23999 255.12C1.30999 249.77 -0.550008 243.75 1.70999 237.22C4.82999 227.94 11.2 220.3 17.01 212.58C18.77 210.32 19.52 208.58 17.96 205.68C15.96 202.06 17.87 196.91 21.5 194.18C22.4528 193.461 23.4825 192.851 24.57 192.36C28.7 190.52 31.64 187.36 34.44 183.96C43.2718 173.214 51.3447 161.867 58.6 150C78.05 117.51 98.81 85.6899 116.29 52.0699C119.02 46.4799 123.76 44.0699 129.59 43.8399C135.38 44.1899 138.45 40.8399 140.96 36.1199C143.535 31.0011 145.408 25.5588 146.53 19.9399C146.67 12.6199 149.99 9.45992 156.26 6.72992C157.19 6.39245 158.101 6.00522 158.99 5.56992C161.47 4.04992 163.99 5.7699 166.29 6.6799C172.8 9.9999 173.06 10.6199 172.42 17.1299C172.079 20.4698 171.169 23.7267 169.73 26.7599C156.05 55.8799 150.98 87.8999 149.73 119.76C148.8 133.02 148.46 146.33 147.9 159.62C147.83 161.4 147.9 163.19 148.02 164.97C148.046 165.576 148.305 166.148 148.743 166.567C149.181 166.987 149.764 167.22 150.37 167.22C151.546 167.337 152.732 167.303 153.9 167.12C162.73 165.82 171.54 164.3 180.5 164.21C182.87 164.21 183.99 163.21 184.73 160.98C191.96 139.77 199.88 118.81 207.41 97.7099C213.02 81.8071 217.308 65.4683 220.23 48.8599C221.07 41.6399 227.03 37.5999 231.95 33.0899C232.825 32.2536 233.959 31.7412 235.165 31.6375C236.37 31.5339 237.575 31.8452 238.58 32.5199C242.22 34.6699 245.51 37.1899 246.58 41.6799C246.948 43.0163 247.388 44.3316 247.9 45.6199C248.599 47.7036 248.488 49.9741 247.59 51.9799C241.27 67.8299 234.95 83.6699 228.8 99.5799C220.52 121.24 212.48 142.993 204.68 164.84C196.75 188.04 188.1 211.31 184.68 235.68C183.39 244.44 187.84 252.3 191.22 260.05C192.87 263.94 191.22 266.75 187.1 267.22C185.73 267.37 184.32 267.22 182.94 267.32C176.76 267.88 173.1 264.61 170.02 259.65C164.22 250.32 163.57 240.35 165.02 229.84C167.66 211.71 173.74 194.46 179.17 177.05C179.62 175.59 178.8 174.69 177.33 175.05C168.323 177.417 159.323 179.82 150.33 182.26C148.72 182.7 148.22 183.6 148.33 185.44C148.797 192.567 149.29 199.697 149.81 206.83C150.89 221.88 151.88 236.94 153.17 251.97C153.415 253.729 153.25 255.521 152.69 257.207C152.13 258.893 151.189 260.427 149.94 261.69C146.94 264.85 144.23 268.29 141.36 271.58C140.51 272.58 139.31 273.19 138.24 272.19C133.16 267.44 128.31 262.49 125.29 256.06C120.67 246.55 131.6 245.17 131.29 236.34C131.1 230.58 131.37 224.81 131.05 219.07C130.09 209.61 129.123 200.147 128.15 190.68C128 184.39 125.69 185.47 120.78 186.94ZM134 81.7199C132.43 80.9299 133.89 77.9999 133.78 76.3699C133.78 76.1299 133.33 75.8699 133.05 75.6899C132.964 75.668 132.874 75.6684 132.788 75.6912C132.702 75.7139 132.624 75.7582 132.56 75.8199C132.04 76.4099 131.56 77.0199 131.06 77.6499C106.06 110.95 80.15 143.7 59.96 180.22C59.32 181.32 59.96 182.22 61.18 182.04C66.66 181.21 72.18 180.52 77.62 179.44C93.54 176.25 109.33 172.44 125.03 168.28C127.85 167.54 127.88 167.39 128.03 164.75C128.6 153.46 129.03 142.17 129.73 130.89C130.33 120.99 131.16 111.11 132.01 101.23C132.51 94.7199 138.16 86.7299 134 81.7199Z" fill="#00538B"/>
<path d="M564.78 248.56C567.26 248.82 568.24 251.31 567.99 254.13C567.72 257.13 569.71 260.73 568.12 263.38C564.97 268.65 557.28 269.19 551.22 270.58C549.324 271.105 547.367 271.378 545.4 271.39C521.74 270.62 508.9 247.94 509.92 226.16C510.015 224.982 510.015 223.798 509.92 222.62C509.92 222.4 508.78 221.99 508.57 222.16C495 233 483.41 246.8 467.43 254.22C461.27 257.17 454.84 259.07 447.95 258.84C446.169 258.753 444.42 259.338 443.05 260.48C438.34 264.1 433.52 267.61 428.58 270.9C418.1 278.9 399.58 272.95 393.48 263.79C390.634 259.489 388.601 254.703 387.48 249.67C385.231 240.372 385.299 230.665 387.68 221.4C388.83 217 388.57 211.82 391.41 208.26C391.686 207.96 391.884 207.597 391.986 207.203C392.089 206.809 392.094 206.396 392 206C392.148 204.715 392.545 203.472 393.17 202.34C395.67 195.72 395.17 187.71 399.41 181.97C399.77 180.52 400.6 178.63 399.17 177.69C397.51 176.6 396.51 178.56 395.5 179.57C394.659 180.571 393.871 181.616 393.14 182.7C387.24 189.92 380.52 196.43 374.38 203.45C365.75 213.3 357.3 223.3 348.73 233.2C347.17 235 345.32 236.54 343.73 238.34C342.062 240.175 339.999 241.606 337.697 242.526C335.394 243.446 332.913 243.83 330.44 243.65C324.05 242.65 320.44 236.76 322.65 230.27C332.65 203.11 343.5 176.27 353.65 149.12C360.47 131.12 366.47 112.89 373.14 94.8899C376.816 85.4609 379.559 75.6942 381.33 65.7299C382.63 56.6599 385.89 48.7299 396.1 47.5399C405.75 46.0599 407.54 56.1199 405.1 63.4599C396.37 87.2799 387.52 111.06 378.85 134.9C372.94 151.31 367.11 167.75 361.24 184.17C360.993 184.709 360.772 185.259 360.58 185.82C360.15 187.55 357.85 190.14 359.4 191.03C360.95 191.92 362.27 188.69 363.4 187.26C367.91 181.26 373.4 176.14 378.29 170.47C389.29 158.02 400.81 145.62 415.22 137.12C419.57 134.48 426.63 136.22 428.22 141.38C429.41 145.18 430.22 149.05 429.05 153.07C423.61 172.54 416.71 191.58 410.95 210.96C408.61 218.72 405.95 226.46 405.1 234.59C404.91 235.89 405.55 237.59 404.55 238.54C406.39 240.82 405.86 244.22 407.1 246.75C410.73 254.44 415.86 255.75 422.02 254.48C426.665 253.373 431.07 251.432 435.02 248.75C435.463 248.519 435.807 248.136 435.991 247.671C436.175 247.207 436.185 246.691 436.02 246.22C432.38 239.02 432.62 231.71 435.62 224.4C445.62 200.4 467.96 178.4 487.55 161.74C494.39 156.19 502.22 151.37 510.95 149.45C518.58 147.45 521.55 150.01 525.52 155.37C526.042 156.213 526.509 157.088 526.92 157.99C527.47 158.94 528.16 158.99 528.66 158.08C530.95 153.72 532.97 149.08 536.01 145.21C539.92 140.46 544.76 141.84 548.79 145.83C553.25 147.75 553.56 151.54 552.54 155.31C551.727 158.969 550.282 162.458 548.27 165.62C543.653 172.291 540.075 179.625 537.66 187.37C534.82 196.46 532.66 205.71 530.54 214.98C527.63 226.43 532.43 243.76 543.02 249.84C547.51 252.26 552.22 252.02 556.94 251.02C559.54 250.42 562 248.28 564.78 248.56ZM516.89 180C516.818 179.734 516.693 179.486 516.521 179.27C516.348 179.055 516.134 178.878 515.89 178.75C514.48 178.05 512.96 177.57 511.54 176.89C510.207 176.208 508.716 175.892 507.22 175.977C505.724 176.061 504.278 176.542 503.03 177.37C500.24 178.879 497.566 180.594 495.03 182.5C488.95 187.57 482.82 192.63 477.19 198.17C467.68 207.8 458.94 218.96 455.19 232.17C455.103 232.608 455.108 233.06 455.204 233.496C455.301 233.932 455.488 234.343 455.752 234.704C456.016 235.064 456.352 235.365 456.74 235.588C457.127 235.811 457.556 235.952 458 236C459.36 236.167 460.741 235.97 462 235.43C465.004 233.935 467.893 232.217 470.64 230.29C482.71 221.57 493.64 211.49 504.44 201.29C509.67 196.4 512.86 190.36 515.75 184.05C516.28 182.88 517.19 181.51 516.89 180Z" fill="#00538B"/>
<path d="M333.23 175.79C332.33 202 308 229 289.59 246C279.92 254.41 268.36 262.8 254.93 262.27C246.45 261.85 241.8 257.35 241.63 248.76C241.49 241.98 244.4 236.51 249.57 232.23C250.518 231.513 251.549 230.912 252.64 230.44C255.57 229.06 260.16 231.21 260.14 234.81C260.26 237.81 260.06 241.1 264.14 240.11C268.464 239.311 272.486 237.343 275.77 234.42C290.27 222.04 301.24 206.01 308.77 188.55C320.98 160.42 297.77 144.02 275.09 165.55C261.65 178.31 252.09 194.44 243.94 210.93C230.06 238.93 219.61 268.21 210.6 298.06C209.564 301.88 208.729 305.752 208.1 309.66C205.77 321.56 201.63 332.96 198.1 344.53C196.41 350.19 196.37 350.09 191.1 352.4C188.82 353.4 186.74 353.4 184.96 351.87C182.253 349.564 179.688 347.097 177.28 344.48C176.586 343.52 176.27 342.338 176.39 341.16C178.11 323 186.09 306 192.07 289C200.9 265.19 208.87 241.1 216.56 216.91C223.22 196.91 228.56 175.91 239.5 157.69C242.07 153.53 246.19 153.08 250.5 153.37C252.89 153.54 254.41 155.37 255.39 157.32C256.139 159.148 256.78 161.018 257.31 162.92C257.43 163.28 257.54 163.83 257.92 163.92C258.3 164.01 258.61 163.53 258.84 163.25C263.815 155.674 270.471 149.348 278.29 144.764C286.108 140.18 294.879 137.462 303.92 136.82C323.71 135.42 332.17 159.52 333.23 175.79Z" fill="#00538B"/>
<path d="M1262.38 280.56C1259.93 280.56 1257.54 279.835 1255.51 278.476C1253.48 277.118 1251.89 275.187 1250.96 272.928C1250.02 270.669 1249.78 268.183 1250.26 265.785C1250.74 263.387 1251.91 261.185 1253.64 259.457C1255.37 257.729 1257.58 256.552 1259.97 256.076C1262.37 255.601 1264.86 255.847 1267.12 256.784C1269.38 257.721 1271.3 259.307 1272.66 261.341C1274.02 263.374 1274.74 265.765 1274.74 268.21C1274.74 271.486 1273.43 274.628 1271.12 276.943C1268.8 279.259 1265.66 280.56 1262.38 280.56V280.56ZM1262.38 258.33C1260.43 258.33 1258.52 258.91 1256.89 259.995C1255.27 261.081 1254 262.624 1253.25 264.429C1252.5 266.234 1252.31 268.221 1252.69 270.138C1253.07 272.054 1254.01 273.815 1255.39 275.196C1256.78 276.578 1258.54 277.519 1260.45 277.9C1262.37 278.281 1264.36 278.086 1266.16 277.338C1267.97 276.59 1269.51 275.324 1270.59 273.699C1271.68 272.074 1272.26 270.164 1272.26 268.21C1272.26 265.591 1271.22 263.079 1269.36 261.227C1267.51 259.374 1265 258.333 1262.38 258.33V258.33Z" fill="#909496"/>
<path d="M1257.76 261.46H1263.21C1263.84 261.42 1264.47 261.505 1265.07 261.711C1265.66 261.917 1266.21 262.24 1266.68 262.66C1267.02 263.026 1267.28 263.456 1267.45 263.925C1267.63 264.393 1267.7 264.891 1267.68 265.39V265.39C1267.72 266.199 1267.49 266.999 1267.03 267.665C1266.57 268.332 1265.9 268.829 1265.13 269.08L1268.04 273.34H1265L1262.45 269.53H1260.39V273.34H1257.77L1257.76 261.46ZM1263.04 267.24C1264.31 267.24 1265.04 266.56 1265.04 265.56C1265.04 264.44 1264.26 263.86 1263.04 263.86H1260.43V267.28L1263.04 267.24Z" fill="#909496"/>
<path d="M1159.12 217.87C1158.17 215.11 1161.12 199.6 1159.12 201.16C1149.11 216.865 1137.28 231.335 1123.88 244.27C1111.75 254.99 1090.88 276.03 1074.68 262.81C1072.3 261.27 1069.83 255.81 1066.68 258.67C1050.22 275.55 1025.52 271.06 1019.88 248.21C1013.97 230.95 1021.51 213.21 1025.78 196.55C1025.65 194.27 1023.64 195.15 1022.78 196.55C1007.69 212.84 991.93 228.61 980.22 247.65C975.11 258.3 952.33 256.46 956.07 241.28C962.63 215.36 968.7 189.28 976.89 163.78C980.54 154.62 992.58 151.78 999.29 159.22C1002.53 167.84 992.17 186.94 989.83 196.56C988.32 199.98 988.75 205.78 993.14 200.86C1003.07 192.27 1046.29 128.09 1057.58 154.86C1065 176.75 1012.58 249.27 1052.05 250.22C1055.68 248.58 1061.91 247.86 1063.25 243.61C1066.94 222.61 1080.14 204.61 1093.25 188.29C1108.14 170.92 1137.35 132.2 1163.1 143.37C1164.9 145.03 1165.99 148.37 1168.75 147.86C1182.58 126.56 1192.27 100.46 1207.86 79.5101C1214.69 72.4101 1230.55 42.83 1240.92 49.75C1255.25 59.57 1234.34 73.64 1230.45 84.18C1207.61 120.39 1187.94 158.97 1179.45 201.26C1176.99 205.59 1176.37 238.66 1182.37 236.86C1188.43 231.26 1194.37 223.91 1202.86 222.39C1213.11 221.56 1193.43 245.25 1195.36 252.22C1194.19 264.69 1211.94 261.7 1217.5 255.47C1256.87 220.06 1193.39 163.41 1232.7 124.71C1235.01 122.297 1237.8 120.4 1240.89 119.144C1243.98 117.888 1247.3 117.302 1250.64 117.424C1253.98 117.546 1257.25 118.373 1260.24 119.851C1263.23 121.329 1265.88 123.425 1268 126C1274.26 133.62 1277.86 142.24 1277 152.31C1277 156.15 1274.6 164.04 1269.43 161.79C1260.04 158.73 1262.43 141.48 1251.15 142.39C1226.64 146.65 1247.65 197.71 1248.05 214.71C1257.54 250.82 1230.69 289.51 1191.36 279.86C1181.87 277.34 1176.01 268.91 1175.78 260.97C1175.64 258.4 1176.45 255.55 1173.68 254.09C1161.57 246.47 1158.08 231.32 1159.12 217.87ZM1084.91 239.74C1084.47 249.23 1096.52 241.51 1100.13 238.74C1120.29 223.6 1133.69 201.94 1149.01 182.31C1154.01 176.18 1158.77 162.99 1145.32 168.02C1136.17 172.5 1128.32 179.91 1120.84 186.66C1106.85 202.53 1091.89 219.58 1084.91 239.74V239.74Z" fill="#909496"/>
<path d="M564.78 248.56C557.87 235.56 572.2 221.63 582.25 211.05C590.53 203.77 609.32 184.24 620.01 184.76C627.12 186.28 624.26 194.1 619.44 196.68C611.689 202.214 604.801 208.866 599 216.42C583.34 238.36 580.08 260.42 615 255.53C651.49 246.4 685.32 227.4 715.53 205.32C781.3 157.67 730.53 125.56 671.53 125.82C652.08 125.87 634.28 134.92 616.03 140.52C608.44 144.25 605.96 132.91 602.43 136.01C594.68 143.78 589.22 169.94 575.06 154.84C573.37 152.56 574.98 149.84 575.85 147.52C583.67 131.26 591.503 115.003 599.35 98.75C610.43 75.25 622.28 52.09 636.01 30C639.41 24.58 638.46 22.71 632.07 22.25C622.07 22.03 606.01 24.25 604.5 36.25C603.62 45.08 605.58 59.62 593.25 60.25C581.85 61.1 570.81 52.35 568.83 40.99C561.04 -9.80005 687.15 -3.10003 715.83 11.2C743.56 20.35 762.83 46.3099 736.75 70.0799C733.82 76.3899 693.33 100.72 701 102.36C742.09 113.18 792.48 130.93 762.73 182.5C731 230 676 257 623.92 276.09C608.15 281.02 587.36 287.03 574.92 272.36C569.56 267.42 566.04 261.58 567.98 254.13C568.24 251.31 566 250.77 564.78 248.56ZM670.41 21C666.61 20.36 664.6 22.13 662.79 25.25C650.3 46.62 637.36 67.7299 625.26 89.3299C621.85 96.7799 615.75 104.08 614.26 112C617.63 114.43 623.32 110.92 627.31 110.65C660.49 103.3 690.31 85.23 716.11 63.48C745.25 37.29 690 23 670.41 21Z" fill="#909496"/>
<path d="M911.66 229.85C913.92 218.32 910.23 222.85 904.37 227.85C893.08 237.47 882.74 248.51 869.29 255.19C851.18 264.19 840.64 260.64 834.79 240.75C832.79 228.19 840.49 216.29 847.27 206.38C858.71 190.79 910.76 127.63 928.27 156.73C929.17 159.64 930.81 158.86 931.93 156.5C935.67 149.88 940.35 137.39 949.71 144.15C953.38 146.61 956.31 149.79 954.91 154.46C953.91 158.46 952.91 162.46 950.33 165.93C939.46 180.75 936.72 199.21 932.33 216.59C928.79 233.24 938.23 253.59 956.63 254.59C963.05 258.18 953.48 262.36 950.02 263.19C927.88 269.47 911.09 250.4 911.66 229.85ZM919.29 180.52C905.89 168.02 891.12 188.9 880.85 196.93C870.14 207.12 860.45 219.04 856.18 233.39C856.99 251.02 898.12 209.17 903.51 204.7C910.13 198.14 917.8 189.87 919.29 180.52V180.52Z" fill="#909496"/>
<path d="M834.2 187.06C832.07 181.87 837.96 174.92 837.64 169.06C831.36 141.84 795.36 199.28 791.48 208.41C786.697 217.306 782.721 226.613 779.6 236.22C776.09 246.72 777.16 259.37 769.83 268.22C765.41 273.22 757.94 265.66 754.5 262.31C745.81 250.15 758.37 232.47 760.76 219.31C768.76 199.67 771.76 178.31 780.14 158.84C793.94 135.72 792.86 165.1 799.53 159.67C826.53 134.67 855.53 118.31 854.02 170.99C856 184.49 838 215.45 834.2 187.06Z" fill="#909496"/>
</svg>
