<svg viewBox="0 0 371 347" fill="none" xmlns="http://www.w3.org/2000/svg">
<path opacity="0.3" d="M176.51 343.704C273.549 343.704 352.214 266.871 352.214 172.092C352.214 77.3141 273.549 0.481201 176.51 0.481201C79.4715 0.481201 0.806152 77.3141 0.806152 172.092C0.806152 266.871 79.4715 343.704 176.51 343.704Z" fill="#E7EEF9"/>
<path opacity="0.3" d="M195.102 346.466C292.141 346.466 370.806 269.634 370.806 174.855C370.806 80.0771 292.141 3.24426 195.102 3.24426C98.0638 3.24426 19.3984 80.0771 19.3984 174.855C19.3984 269.634 98.0638 346.466 195.102 346.466Z" fill="#E7EEF9"/>
<path d="M213.166 231.55C213.904 231.636 214.286 234.862 217.881 231.55C221.476 228.237 223.653 229.5 225.285 230.639C226.917 231.779 231.486 231.701 233.336 233.919C235.186 236.137 239.209 237.477 240.077 236.788C240.945 236.1 240.077 236.694 242.686 235.632C243.415 235.369 244.048 234.902 244.507 234.29C244.966 233.677 245.232 232.947 245.27 232.189V232.189C245.979 232.796 246.638 233.259 247.053 233.628C248.886 235.268 248.425 234.977 249.495 240.921C250.564 246.865 267.827 261.454 267.827 261.454C259.118 261.589 266.757 270.37 264.471 274.695C262.185 279.02 266.149 282.258 265.692 286.309C265.234 290.359 260.955 288.358 259.886 286.309C258.816 284.259 255.917 281.447 252.251 281.447C248.584 281.447 257.902 287.661 252.251 287.391C246.6 287.12 245.832 285.366 247.359 279.286C248.886 273.207 236.822 269.288 234.225 267.669C231.628 266.05 229.795 264.562 224.753 264.697C219.71 264.832 221.086 261.048 220.78 257.941C220.474 254.834 217.726 255.916 215.586 253.35C213.447 250.784 207.641 248.217 207.725 249.029C207.809 249.841 207.947 252.809 212.226 254.969C216.505 257.129 215.129 257.269 212.226 260.643C209.323 264.016 209.474 261.184 205.514 257.404C201.554 253.624 201.386 256.728 195.736 252.809C190.085 248.89 192.22 244.028 196.348 241.462C200.476 238.896 194.209 236.329 192.069 234.71C189.93 233.091 196.956 231.632 196.956 231.632C198.026 224.228 201.542 228.496 203.375 227.942C205.208 227.389 207.041 229.426 211.928 231.185C212.553 231.413 213.209 231.551 213.875 231.595" fill="#FDE145"/>
<path d="M90.831 161.073C90.831 161.073 91.5484 155.666 96.3811 154.104C101.214 152.542 98.4786 150.271 102.221 149.185C105.962 148.099 98.9987 144.758 104.637 144.463C105.438 144.422 106.172 144.393 106.852 144.389C106.852 144.389 107.053 142.302 109.595 141.519C112.138 140.736 111.785 139.945 109.872 135.42C107.959 130.894 116.416 128.242 119.739 125.581C123.061 122.921 133.23 115.714 133.23 115.714C130.226 113.209 127.932 108.905 126.698 111.09C125.142 113.853 128.536 118.965 124.718 117.444C120.901 115.923 124.58 112.336 111.995 111.369C111.273 111.311 114.537 64.4108 114.537 64.4108C114.537 64.4108 113.971 67.1737 108.882 67.1737C103.794 67.1737 74.9445 67.4484 74.9445 67.4484V79.3365L64.1969 79.0618C64.1969 79.0618 67.4522 84.5877 73.2497 87.9C79.0472 91.2122 78.9046 92.7372 80.0373 95.9101C81.1699 99.083 86.2585 97.1399 85.9732 99.5011C85.688 101.862 81.3084 103.924 82.2984 105.855C83.2884 107.786 56.562 106.675 56.562 106.675C56.562 106.675 43.4106 119.108 44.6859 123.527C45.9612 127.946 44.5097 127.668 44.5978 131.537C44.6859 135.407 45.3529 137.473 44.5978 140.101C43.8427 142.729 60.3836 154.326 63.92 154.449C67.4564 154.572 71.8654 150.579 79.559 154.449C83.0157 156.183 86.9423 158.757 90.8394 161.065" fill="#F9AF8B"/>
<path d="M145.954 173.048C142.019 172.133 140.895 173.048 140.895 176.675C140.895 180.303 134.426 177.581 127.68 175.769C120.935 173.958 122.055 176.524 116.715 173.048C111.374 169.571 110.808 169.735 104.062 169.735C100.346 169.735 95.6472 167.083 90.8984 163.996V163.791C90.8984 163.791 91.4983 158.089 96.3058 156.372C101.113 154.654 98.4033 152.186 102.112 151.001C105.82 149.817 98.9067 146.172 104.511 145.849C105.308 145.804 106.038 145.771 106.714 145.767H106.827C110.93 145.738 113.174 146.668 117.038 151.001C121.543 156.048 122.642 159.696 127.647 159.376C132.651 159.057 130.55 155.921 134.254 157.433C137.958 158.946 138.558 160.987 141.864 160.45C145.169 159.913 144.964 158.196 144.666 162.381C144.368 166.567 142.631 166.14 143.663 169.469L144.695 172.802" fill="#F09065"/>
<path d="M157.519 178.819C156.487 175.86 152.615 171.371 149.88 170.793L148.622 170.571L147.573 167.489C146.528 164.406 148.286 164.808 148.592 160.93C148.898 157.052 149.1 158.642 145.744 159.143C142.388 159.643 141.78 157.749 138.017 156.351C134.254 154.953 136.389 157.851 131.305 158.146C126.22 158.442 125.104 155.068 120.528 150.399C116.597 146.394 114.319 145.533 110.153 145.557C110.153 145.557 110.355 143.446 112.922 142.651C115.489 141.856 115.137 141.06 113.203 136.502C111.269 131.943 119.814 129.25 123.17 126.565C126.526 123.88 136.796 116.599 136.796 116.599C137.534 117.253 138.4 117.752 139.342 118.067C143.625 119.321 144.913 114.3 149.909 112.488C154.906 110.676 149.909 116.673 158.765 115.558C167.621 114.443 170.335 117.091 179.321 116.673C188.306 116.255 185.462 115.698 190.177 111.93C194.893 108.163 194.607 115.275 205.888 113.045C217.168 110.815 217.172 115.558 223.314 115.275C229.455 114.993 228.029 116.116 226.745 122.244C225.462 128.373 238.173 128.393 241.6 127.266C245.027 126.139 254.739 131.87 250.741 133.415L247.032 132.325C243.328 131.234 243.878 132.821 240.929 135.702C237.98 138.584 236.251 137.391 228.927 139.675C221.602 141.958 221.506 141.167 216.115 138.084C210.725 135.001 214.081 137.19 207.775 141.663C201.47 146.135 204.621 147.324 200.451 151.993C196.281 156.662 192.317 159.54 188.248 156.564C184.179 153.588 184.585 155.469 182.144 158.15C179.702 160.831 177.873 161.729 173.557 160.335C169.24 158.942 169.84 161.627 169.534 165.304C169.227 168.981 170.96 171.363 166.891 170.793C162.822 170.223 165.058 174.741 164.651 178.815C164.244 182.89 157.666 179.258 157.519 178.815" fill="#EB6E75"/>
<path d="M259.672 292.199C257.78 292.199 255.754 290.625 254.986 289.022C254.218 287.42 252.016 284.849 249.268 284.484C249.478 284.812 249.738 285.185 249.948 285.476C250.997 286.969 252.087 288.506 251.349 289.793C250.682 290.957 249.067 290.871 248.534 290.843C246.462 290.732 244.171 290.404 242.93 288.793C241.587 287.071 241.843 284.423 242.686 280.713C243.676 276.327 236.931 272.883 232.895 270.797C232.016 270.373 231.162 269.903 230.336 269.386L229.677 268.927C227.483 267.386 225.902 266.267 221.808 266.394C220.155 266.439 218.917 266.07 218.07 265.254C216.727 263.967 216.753 261.999 216.774 260.097C216.774 259.417 216.774 258.712 216.736 258.072C216.623 256.81 216.211 256.621 215.108 256.113C213.833 255.608 212.721 254.775 211.891 253.702C210.691 252.112 208.17 250.546 206.592 249.796C206.949 250.96 207.83 252.493 210.133 253.78C212.096 254.875 213.128 255.633 213.338 256.748C213.548 257.863 212.784 258.798 211.723 260.064C211.354 260.499 210.938 260.991 210.464 261.577C209.483 262.836 208.623 263.672 207.49 263.647C206.261 263.623 205.565 262.639 204.604 261.278C203.864 260.183 203.042 259.143 202.146 258.166C200.468 256.396 199.729 256.277 198.618 256.092C197.321 255.879 195.71 255.613 192.745 253.342C189.523 250.882 188.906 248.258 188.969 246.496C189.036 243.843 190.697 241.166 193.403 239.281C193.722 239.063 194.242 238.641 194.242 238.252C194.242 237.325 192.111 235.89 190.844 235.034C190.202 234.624 189.586 234.214 189.137 233.804C188.827 233.583 188.591 233.278 188.457 232.926C188.324 232.575 188.299 232.193 188.386 231.828C188.78 230.246 191.562 229.237 193.621 228.696C194.041 226.195 194.75 224.765 195.903 224.101C197.208 223.346 198.563 223.871 199.553 224.256C199.879 224.407 200.225 224.512 200.581 224.568C202.099 224.072 203.471 224.859 205.195 225.859C206.636 226.716 208.14 227.464 209.697 228.098C210.955 228.606 211.974 228.606 212.633 228.098C213.644 227.351 214.148 225.367 213.892 223.178C213.611 220.743 205.862 213.983 201.231 209.941C201 209.74 200.861 209.457 200.843 209.155C200.826 208.852 200.932 208.556 201.139 208.33C201.345 208.105 201.635 207.969 201.944 207.952C202.253 207.935 202.557 208.039 202.787 208.24C210.427 214.906 215.859 219.858 216.211 222.92C216.564 225.982 215.763 228.659 214.043 229.93C213.09 230.635 211.408 231.258 208.79 230.221C207.132 229.549 205.529 228.753 203.996 227.839C202.544 227.019 201.768 226.589 201.256 226.753C200.35 227.048 199.448 226.7 198.651 226.392C198.022 226.146 197.393 225.896 197.053 226.081C196.856 226.195 196.176 226.798 195.794 229.77C195.766 230.001 195.665 230.218 195.506 230.391C195.347 230.564 195.137 230.685 194.905 230.738C193.227 231.123 191.494 231.779 190.836 232.242C191.188 232.517 191.654 232.828 192.145 233.16C194.204 234.55 196.541 236.128 196.549 238.248C196.549 239.334 195.937 240.297 194.712 241.154C192.614 242.601 191.318 244.622 191.268 246.561C191.222 248.361 192.195 250.042 194.167 251.546C196.684 253.46 197.846 253.653 198.987 253.846C200.572 254.104 201.768 254.44 203.836 256.617C204.82 257.67 205.721 258.795 206.529 259.982C206.84 260.452 207.187 260.899 207.566 261.319C207.963 260.993 208.313 260.615 208.606 260.196C209.088 259.577 209.52 259.068 209.902 258.617C210.322 258.169 210.692 257.679 211.005 257.154C210.892 256.99 210.464 256.609 208.958 255.768C205.934 254.079 204.264 251.669 203.991 248.57V248.476C203.963 248.196 204.03 247.916 204.182 247.678C204.333 247.44 204.562 247.258 204.83 247.16C206.479 246.549 211.962 249.943 213.762 252.349C214.363 253.116 215.171 253.705 216.094 254.051C217.311 254.612 218.821 255.313 219.051 257.88C219.107 258.628 219.122 259.38 219.098 260.13C219.098 261.618 219.064 263.024 219.693 263.627C220.058 263.979 220.746 264.139 221.724 264.115C226.619 263.971 228.759 265.476 231.032 267.074L231.674 267.525C232.417 267.98 233.183 268.397 233.969 268.776C238.584 271.149 246.344 275.117 244.956 281.221C244.163 284.71 244.117 286.55 244.78 287.424C245.296 288.092 246.525 288.453 248.647 288.567C248.814 288.576 248.98 288.576 249.147 288.567C248.814 287.945 248.434 287.347 248.01 286.78C247.016 285.374 246.156 284.161 246.751 283.091C246.974 282.681 247.473 282.181 248.593 282.181C252.503 282.181 255.724 285.239 257.105 288.08C257.579 289.076 259.009 290.06 259.798 289.932C260.322 289.842 260.49 288.965 260.54 288.449C260.704 286.878 260.2 285.374 259.663 283.788C258.862 281.402 257.952 278.696 259.454 275.56C260.142 274.129 259.622 271.834 259.118 269.616C258.506 266.931 257.86 264.152 259.353 262.319C259.853 261.701 260.529 261.24 261.295 260.995C256.819 256.67 245.652 245.417 244.742 239.822C244.524 238.477 244.368 237.428 244.247 236.587C243.827 233.718 243.827 233.718 242.686 232.59C242.51 232.418 242.288 232.23 242.036 232.012C239.758 230.049 234.422 225.453 239.485 215.554C241.583 211.491 241.398 210.151 241.231 209.765C241.105 209.47 240.769 209.355 240.09 209.13C239.28 208.88 237.778 208.416 237.875 206.67C237.937 205.539 238.437 204.538 238.915 203.571C239.754 201.911 240.522 200.341 239.452 197.861C238 194.479 239.959 192.122 241.386 190.412C242.036 189.633 242.707 188.826 242.644 188.362C242.575 188.05 242.596 187.724 242.705 187.423C242.815 187.122 243.009 186.856 243.265 186.657C244.104 186.046 245.128 186.489 246.025 186.874L246.177 186.94C246.009 186.341 245.757 185.53 245.426 184.611C245.237 184.054 245.035 183.447 244.826 182.804C244.77 182.658 244.745 182.504 244.752 182.348C244.759 182.193 244.798 182.041 244.868 181.902C244.937 181.762 245.035 181.638 245.155 181.536C245.275 181.434 245.415 181.358 245.566 181.311C245.717 181.264 245.877 181.247 246.035 181.262C246.193 181.277 246.346 181.324 246.485 181.399C246.625 181.474 246.747 181.575 246.844 181.698C246.942 181.82 247.013 181.961 247.053 182.111C247.259 182.75 247.473 183.341 247.649 183.898C248.039 185.058 248.345 185.972 248.522 186.682C248.635 187.153 248.941 188.412 248.052 189.141C247.162 189.871 246.009 189.371 245.077 188.969L244.947 188.912C244.754 189.994 243.966 190.961 243.198 191.867C241.688 193.679 240.761 195.016 241.608 196.987C243.081 200.423 241.889 202.825 241.017 204.579C240.62 205.251 240.348 205.985 240.211 206.748C240.401 206.824 240.594 206.891 240.79 206.949C241.6 207.195 242.82 207.572 243.383 208.872C244.058 210.433 243.5 212.807 241.575 216.57C237.312 224.896 241.235 228.274 243.58 230.295C243.873 230.549 244.134 230.774 244.335 230.971C246.013 232.611 246.088 233.021 246.558 236.264C246.68 237.083 246.831 238.129 247.049 239.461C247.854 244.38 259.978 256.637 264.584 260.938C264.751 261.094 264.867 261.296 264.916 261.517C264.966 261.738 264.947 261.968 264.863 262.179C264.778 262.39 264.632 262.571 264.442 262.7C264.252 262.83 264.027 262.901 263.796 262.905C262.47 262.926 261.585 263.2 261.169 263.725C260.381 264.705 260.888 266.947 261.383 269.112C261.971 271.703 262.583 274.384 261.555 276.523C260.444 278.835 261.107 280.795 261.87 283.082C262.457 284.825 263.061 286.632 262.852 288.686C262.575 291.396 261.056 292.044 260.175 292.191C260.008 292.207 259.84 292.21 259.672 292.199V292.199Z" fill="#20376A"/>
<path d="M192.867 227.68C192.679 227.679 192.495 227.635 192.329 227.551C192.162 227.467 192.019 227.345 191.91 227.196C190.765 225.618 187.187 221.305 184.422 220.334C180.466 218.944 170.96 209.917 168.548 204.584C167.79 203.079 166.864 201.66 165.788 200.353C165.69 200.235 165.617 200.098 165.574 199.951C165.531 199.804 165.519 199.651 165.537 199.499C165.556 199.348 165.605 199.201 165.683 199.069C165.76 198.936 165.864 198.82 165.988 198.728C166.112 198.635 166.254 198.567 166.405 198.529C166.556 198.491 166.713 198.482 166.868 198.504C167.023 198.526 167.171 198.578 167.305 198.657C167.438 198.736 167.554 198.84 167.646 198.964C168.836 200.414 169.854 201.989 170.683 203.662C172.819 208.384 181.783 216.976 185.211 218.186C188.386 219.301 191.793 223.285 193.181 225.044C193.524 224.822 193.798 224.513 193.974 224.15C194.029 224.001 194.049 223.842 194.035 223.684C194.02 223.526 193.971 223.374 193.89 223.236C193.638 222.72 192.678 221.596 191.658 220.44C188.244 216.513 183.084 210.577 186.624 206.839C187.53 205.83 188.296 204.709 188.902 203.506C189.699 202.071 190.45 200.714 191.944 200.485C193.315 200.276 194.851 201.087 197.225 203.293C197.909 203.928 198.702 204.645 199.721 205.543C199.943 205.749 200.073 206.032 200.084 206.33C200.095 206.629 199.986 206.92 199.781 207.141C199.575 207.362 199.29 207.496 198.984 207.514C198.679 207.531 198.379 207.432 198.148 207.236C197.12 206.326 196.311 205.597 195.631 204.949C193.303 202.784 192.51 202.706 192.325 202.739C191.973 202.797 191.444 203.752 190.979 204.592C190.276 205.965 189.393 207.243 188.353 208.392C186.209 210.647 190.736 215.853 193.441 218.965C194.7 220.42 195.623 221.473 196.004 222.244C196.221 222.663 196.345 223.122 196.37 223.59C196.395 224.059 196.319 224.528 196.147 224.966C195.472 226.663 193.525 227.483 193.303 227.573C193.166 227.636 193.018 227.673 192.867 227.68V227.68Z" fill="#20376A"/>
<path d="M162.167 195.639C162.01 195.638 161.855 195.607 161.711 195.546C161.567 195.486 161.437 195.397 161.328 195.287C157.871 191.737 154.461 188.937 152.426 187.977C148.693 186.211 147.64 184.288 147.417 182.984C147.316 182.395 147.365 181.791 147.559 181.224C147.754 180.658 148.088 180.148 148.533 179.738C150.119 178.188 151.659 179.672 152.485 180.472C153.597 181.55 154.427 182.242 155.732 182.033C155.812 182.033 155.841 182.009 155.841 182.005C155.866 181.923 155.904 181.291 155.271 179.988C153.807 176.979 150.463 173.622 148.517 173.207C146.725 172.83 145.58 172.822 145.131 173.179C144.758 173.474 144.569 174.286 144.569 175.593C144.591 176.014 144.508 176.434 144.329 176.817C144.149 177.2 143.877 177.536 143.537 177.795C141.687 179.176 138.012 178.205 132.928 176.823C131.669 176.491 130.411 176.147 129.11 175.831C127.336 175.346 125.499 175.117 123.657 175.151C121.715 175.151 120.557 175.085 117.155 173.068C112.033 170.035 111.508 170.03 105.3 170.043H104.347C99.0784 170.043 92.4167 165.964 85.9731 162.02C83.1289 160.282 80.4441 158.642 77.9732 157.4C72.7588 154.777 69.2266 155.826 66.1097 156.749C64.6709 157.159 63.3075 157.568 61.9819 157.523C58.1602 157.376 44.5012 147.787 41.3885 143.586C40.8893 142.913 40.2559 141.905 40.5495 140.921C41.0278 139.281 40.9019 137.83 40.7299 135.834C40.6418 134.797 40.5411 133.624 40.5118 132.23C40.4773 131.002 40.6185 129.776 40.9313 128.586C41.1998 127.438 41.3927 126.606 40.6628 124.077C39.2071 119.022 51.0958 107.458 53.4912 105.191C53.6044 105.082 53.7398 104.997 53.8886 104.942C54.0375 104.887 54.1964 104.863 54.3553 104.871C65.191 105.318 77.1594 105.359 80.1043 104.711C79.991 103.26 81.2538 101.952 82.3025 100.866C83.1163 100.022 84.0434 99.0665 84.1399 98.3205C83.7057 98.1859 83.2588 98.0939 82.8059 98.0458C81.2118 97.8121 78.7997 97.4555 77.9355 95.0369C77.7929 94.6269 77.6628 94.2416 77.5454 93.8727C76.7357 91.4131 76.2869 90.0562 71.299 87.203C65.0065 83.5997 61.4827 77.7212 61.34 77.4711C61.234 77.2969 61.1781 77.0979 61.1781 76.8952C61.1781 76.6925 61.234 76.4935 61.34 76.3192C61.4478 76.1459 61.6002 76.0032 61.782 75.9054C61.9638 75.8076 62.1687 75.758 62.3762 75.7617L72.4988 76.02V64.6894C72.4987 64.3881 72.6203 64.0991 72.8371 63.8849C73.0539 63.6708 73.3483 63.5489 73.6566 63.5456C73.9628 63.5456 104.125 63.2546 109.432 63.2546C113.66 63.2546 114.231 61.3156 114.252 61.2336C114.311 60.9506 114.478 60.7003 114.72 60.5342C114.962 60.368 115.26 60.2985 115.552 60.3399C115.848 60.3817 116.117 60.5321 116.304 60.7604C116.491 60.9888 116.582 61.2782 116.559 61.5697C115.347 78.9756 113.694 104.945 113.765 109.918C121.736 110.651 123.451 112.439 124.827 114.681C125.293 115.439 125.599 115.939 126.564 116.321C126.723 116.382 126.849 116.427 126.954 116.456C126.954 116.091 126.858 115.554 126.803 115.161C126.581 113.619 126.3 111.701 127.185 110.131C127.335 109.804 127.568 109.519 127.862 109.304C128.155 109.089 128.5 108.95 128.863 108.901C130.31 108.749 131.476 110.065 133.104 111.881C134.53 113.472 136.305 115.456 138.075 115.98C139.925 116.522 140.945 115.677 142.891 113.873C144.317 112.558 145.928 111.065 148.345 110.184C149.695 109.696 150.635 109.626 151.386 109.967C152.263 110.377 152.556 111.139 152.791 111.766C153.181 112.795 153.584 113.861 157.825 113.324C162.968 112.676 166.157 113.201 169.534 113.734C172.773 114.356 176.077 114.6 179.375 114.46C185.638 114.169 185.869 113.914 187.161 112.484C188.028 111.497 188.984 110.588 190.018 109.77C192.921 107.45 194.679 108.405 196.541 109.417C198.404 110.43 201.042 111.877 206.915 110.696C214.466 109.208 217.47 110.582 220.142 111.791C221.699 112.496 223.037 113.107 225.277 113.021C228.163 112.89 229.791 113.021 230.676 114.066C231.561 115.111 231.255 116.616 230.676 119.022C230.487 119.793 230.256 120.662 230.063 121.67C229.942 122.114 229.955 122.582 230.1 123.018C230.245 123.455 230.517 123.841 230.881 124.13C233.671 126.545 241.558 126.401 244.045 125.593C247.49 124.47 254.906 128.307 255.951 131.128C256.333 132.148 256.119 133.477 254.382 134.141C251.559 135.227 251.265 137.207 251.244 137.785C255.842 148.263 252.645 153.182 249.264 158.36C248.71 159.212 248.136 160.09 247.586 161.008C247.427 161.265 247.171 161.45 246.874 161.524C246.576 161.599 246.26 161.555 245.995 161.404C245.73 161.253 245.536 161.006 245.455 160.716C245.374 160.427 245.414 160.118 245.564 159.856C246.135 158.905 246.718 158.003 247.284 157.134C250.611 152.026 253.237 147.992 249.012 138.498C248.961 138.385 248.929 138.265 248.916 138.142C248.916 137.974 248.601 133.923 253.53 132.034C253.611 132.003 253.689 131.965 253.761 131.919C253.656 131.624 253.081 130.869 251.664 129.939C249.226 128.348 246.08 127.36 244.801 127.774C241.864 128.734 232.979 129.004 229.346 125.856C228.674 125.3 228.172 124.573 227.897 123.755C227.623 122.937 227.585 122.061 227.79 121.224C228.008 120.182 228.209 119.289 228.419 118.502C228.708 117.313 229.073 115.833 228.901 115.53C228.767 115.398 228.13 115.189 225.411 115.316C222.617 115.439 220.868 114.652 219.186 113.89C216.728 112.775 214.19 111.623 207.41 112.967C200.631 114.312 197.531 112.599 195.434 111.442C193.714 110.508 193.198 110.213 191.524 111.565C190.587 112.306 189.722 113.13 188.94 114.025C187.09 116.075 186.226 116.46 179.514 116.772C176.048 116.922 172.577 116.668 169.173 116.013C165.972 115.489 162.947 114.997 158.148 115.603C152.514 116.313 151.302 114.406 150.597 112.566C150.538 112.39 150.465 112.219 150.379 112.053C149.957 112.07 149.542 112.168 149.158 112.34C147.174 113.058 145.802 114.324 144.485 115.55C142.581 117.309 140.613 119.129 137.387 118.186C134.971 117.477 132.949 115.218 131.325 113.402C130.663 112.664 129.706 111.594 129.19 111.279C128.712 112.18 128.926 113.656 129.098 114.845C129.308 116.296 129.517 117.665 128.502 118.428C127.621 119.1 126.459 118.756 125.658 118.428C123.98 117.756 123.351 116.739 122.801 115.841C121.908 114.39 120.897 112.742 112.599 112.102C111.366 112.008 111.387 110.938 111.42 108.803C111.441 107.507 111.508 105.605 111.621 103.158C111.814 99.0583 112.137 93.3192 112.578 86.1331C113.106 77.6392 113.681 69.0757 113.987 64.5951C112.572 65.2678 111.009 65.5928 109.436 65.542C104.733 65.542 80.4567 65.7675 74.8438 65.8208V77.2047C74.8433 77.3572 74.8116 77.508 74.7508 77.6484C74.6899 77.7888 74.6011 77.916 74.4894 78.0225C74.3777 78.1289 74.2454 78.2126 74.1003 78.2686C73.9551 78.3245 73.8 78.3517 73.644 78.3484L64.5492 78.1147C66.0049 80.0373 68.7149 83.1159 72.44 85.2435C77.9439 88.3918 78.7325 90.134 79.731 93.1881C79.8442 93.5365 79.9659 93.9055 80.1043 94.2949C80.4777 95.3402 81.4887 95.5616 83.1121 95.7994C84.4503 95.9961 86.6947 96.3241 86.422 98.591C86.2374 100.091 85.0293 101.342 83.9595 102.449C83.2715 103.162 82.227 104.244 82.4284 104.642C82.54 104.854 82.5922 105.091 82.5797 105.329C82.5671 105.568 82.4903 105.799 82.357 105.999C81.883 106.712 81.2831 107.605 67.3808 107.487C61.8602 107.446 56.3773 107.249 54.7203 107.187C49.2164 112.455 42.0933 120.773 42.8736 123.47C43.7629 126.565 43.4735 127.803 43.1672 129.111C42.9047 130.119 42.7889 131.158 42.8232 132.198C42.8526 133.518 42.9491 134.657 43.0372 135.657C43.2176 137.781 43.3602 139.466 42.7981 141.474C43.2973 144.016 58.7978 155.113 62.0574 155.24C62.9929 155.277 64.1171 154.949 65.4134 154.564C68.6016 153.617 72.9644 152.325 79.0262 155.383C81.5852 156.671 84.3119 158.339 87.1981 160.102C93.3606 163.873 99.737 167.776 104.331 167.776H105.279C111.676 167.776 112.666 167.776 118.35 171.133C121.341 172.904 122.101 172.896 123.619 172.884C125.656 172.847 127.688 173.098 129.652 173.63C130.969 173.954 132.265 174.302 133.524 174.638C136.926 175.552 141.163 176.688 142.094 175.995C142.128 175.97 142.207 175.913 142.207 175.61C142.207 174.183 142.367 172.42 143.638 171.42C145.01 170.338 147.111 170.6 148.986 171.01C152.955 171.83 158.215 178.713 158.148 181.956C158.169 182.532 157.968 183.096 157.584 183.535C157.201 183.973 156.662 184.255 156.076 184.325C153.5 184.735 151.881 183.165 150.815 182.128C150.584 181.897 150.34 181.678 150.086 181.472C149.93 181.621 149.813 181.805 149.745 182.007C149.678 182.21 149.66 182.426 149.695 182.636C149.783 183.148 150.325 184.489 153.421 185.952C155.724 187.039 159.294 189.953 162.998 193.741C163.104 193.85 163.187 193.978 163.242 194.118C163.298 194.258 163.324 194.407 163.32 194.557C163.316 194.707 163.282 194.855 163.22 194.992C163.157 195.129 163.067 195.253 162.956 195.356C162.739 195.544 162.457 195.645 162.167 195.639V195.639Z" fill="#20376A"/>
<path d="M243.676 173.002C243.378 173.002 243.092 172.891 242.875 172.691C242.659 172.492 242.528 172.219 242.51 171.928C242.3 168.485 242.787 165.447 243.953 162.91C244.086 162.643 244.32 162.436 244.606 162.335C244.892 162.233 245.207 162.244 245.484 162.366C245.762 162.487 245.98 162.71 246.093 162.986C246.205 163.262 246.204 163.57 246.088 163.845C245.073 166.05 244.658 168.727 244.83 171.801C244.848 172.103 244.743 172.4 244.538 172.626C244.332 172.852 244.044 172.989 243.735 173.007L243.676 173.002Z" fill="#20376A"/>
<path d="M236.02 236.506C235.88 236.505 235.74 236.497 235.601 236.481C233.701 236.28 230.793 234.841 229.216 232.747C228.377 231.632 226.536 231.156 224.912 230.734C223.62 230.398 222.395 230.082 221.556 229.438C220.222 228.397 218.846 227.323 215.905 230.316C214.504 231.742 213.334 232.365 212.222 232.263C211.001 232.152 210.36 231.201 210.016 230.693L209.906 230.529C209.669 230.4 209.484 230.195 209.385 229.948C209.285 229.701 209.277 229.428 209.36 229.175C209.444 228.923 209.615 228.707 209.844 228.564C210.073 228.421 210.346 228.361 210.615 228.393C210.907 228.456 211.181 228.583 211.416 228.764C211.65 228.945 211.84 229.176 211.97 229.438C212.063 229.57 212.335 229.98 212.436 229.988C212.436 229.988 212.956 230.021 214.219 228.733C218.641 224.224 221.707 226.63 223.029 227.651C223.469 227.995 224.501 228.266 225.504 228.524C227.4 229.016 229.757 229.631 231.091 231.394C232.471 233.218 235.249 234.308 236.062 234.231L236.155 234.153C236.408 233.898 236.722 233.709 237.069 233.603C237.304 233.521 237.732 233.37 238.785 232.898C239.313 232.665 239.765 232.292 240.09 231.823C240.414 231.353 240.598 230.804 240.622 230.238C240.62 229.935 240.741 229.644 240.958 229.428C241.175 229.212 241.471 229.089 241.78 229.086C242.089 229.087 242.386 229.206 242.607 229.417C242.828 229.628 242.956 229.915 242.963 230.217C242.939 231.224 242.626 232.203 242.06 233.045C241.494 233.886 240.698 234.555 239.762 234.977C238.617 235.489 238.126 235.661 237.862 235.751L237.808 235.772L237.711 235.858L237.497 236.042C237.08 236.369 236.554 236.534 236.02 236.506V236.506Z" fill="#20376A"/>
<path d="M161.958 183.595C159.613 183.595 155.942 181.882 155.602 180.795C155.523 180.538 155.539 180.261 155.648 180.014C155.756 179.767 155.951 179.565 156.197 179.444C156.443 179.323 156.725 179.291 156.993 179.353C157.261 179.415 157.498 179.567 157.662 179.783C158.308 180.295 161.24 181.693 162.486 181.226C162.629 181.177 162.906 181.066 162.99 180.349C163.069 179.118 163.028 177.882 162.868 176.659C162.662 174.556 162.486 172.74 163.665 171.642C164.357 170.998 165.343 170.777 166.652 170.957C167.86 171.129 168.141 170.957 168.154 170.957C168.216 170.402 168.209 169.842 168.133 169.289C168.031 168.285 168.014 167.274 168.082 166.267C168.124 165.73 168.15 165.214 168.175 164.726C168.271 162.738 168.359 161.037 169.681 160.135C170.918 159.315 172.617 159.725 173.809 160.094C177.739 161.36 179.182 160.717 181.527 158.142C181.978 157.636 182.398 157.105 182.786 156.552C183.466 155.613 184.103 154.724 185.253 154.547C186.486 154.359 187.77 155.088 189.473 156.326C192.493 158.544 195.723 157.208 200.619 151.723C201.799 150.478 202.662 148.978 203.136 147.345C203.765 145.459 204.357 143.676 208.455 140.786C210.024 139.737 211.373 138.404 212.428 136.859C214.077 134.506 215.176 135.133 218.431 136.994C219.001 137.318 219.513 137.621 219.983 137.896C223.973 140.237 224.484 140.536 230.857 138.548C233.096 137.848 235.382 137.3 237.699 136.908C240.161 136.465 241.285 136.26 242.905 134.682C243.557 134.033 244.161 133.34 244.713 132.608C246.097 130.833 247.049 129.873 250.435 130.87L254.298 132.005C254.45 132.045 254.591 132.114 254.715 132.208C254.838 132.302 254.941 132.42 255.017 132.554C255.094 132.687 255.141 132.835 255.158 132.987C255.175 133.139 255.16 133.293 255.115 133.44C255.07 133.586 254.995 133.723 254.895 133.84C254.795 133.958 254.672 134.055 254.532 134.125C254.393 134.196 254.241 134.238 254.085 134.25C253.929 134.262 253.772 134.243 253.623 134.194L249.759 133.059C247.758 132.468 247.662 132.583 246.575 133.993C245.96 134.807 245.286 135.577 244.557 136.297C242.426 138.38 240.715 138.687 238.127 139.167C235.905 139.539 233.713 140.062 231.566 140.733C224.434 142.963 223.331 142.532 218.779 139.859L217.248 138.958C216.442 138.461 215.601 138.021 214.731 137.642C214.63 137.761 214.488 137.97 214.366 138.142C213.158 139.902 211.621 141.423 209.835 142.626C206.358 145.086 205.921 146.398 205.372 148.054C204.803 149.983 203.782 151.756 202.389 153.231C198.274 157.839 193.357 162.029 188.076 158.151C186.268 156.827 185.748 156.786 185.622 156.802C185.496 156.818 185.022 157.425 184.703 157.864C184.267 158.488 183.793 159.086 183.285 159.655C180.533 162.676 178.201 163.906 173.083 162.262C171.514 161.754 171.086 161.963 171.015 162.012C170.646 162.258 170.595 163.689 170.52 164.833C170.495 165.345 170.465 165.886 170.419 166.448C170.365 167.336 170.381 168.227 170.469 169.112C170.583 170.543 170.679 171.777 169.748 172.63C168.817 173.482 167.453 173.372 166.329 173.216C165.712 173.13 165.381 173.216 165.289 173.29C164.928 173.622 165.087 175.249 165.205 176.438C165.38 177.807 165.42 179.189 165.326 180.566C165.15 182.308 164.068 183.403 162.365 183.571C162.23 183.591 162.096 183.595 161.958 183.595Z" fill="#20376A"/>
<path d="M147.422 173.002C147.176 173.003 146.936 172.927 146.737 172.786C146.537 172.646 146.388 172.447 146.31 172.219L145.22 169.005C144.511 166.927 144.834 165.972 145.408 164.754C145.889 163.807 146.166 162.773 146.222 161.717C146.252 161.336 146.281 161.003 146.306 160.717C146.308 160.704 146.308 160.692 146.306 160.68C145.745 160.853 145.172 160.983 144.59 161.069C141.96 161.458 140.622 160.639 139.07 159.688C138.084 159.051 137.032 158.518 135.932 158.097C134.673 157.626 134.594 157.687 134.182 158.118C133.322 159.003 132.249 159.876 129.417 160.044C124.823 160.311 122.902 158.04 120.217 154.9C119.378 153.912 118.418 152.792 117.256 151.62C112.725 147 110.544 146.701 105.006 146.996C104.589 147.007 104.174 147.062 103.769 147.16C103.853 147.332 103.974 147.541 104.066 147.705C104.486 148.439 105.065 149.443 104.637 150.472C104.36 151.149 103.714 151.636 102.732 151.923C101.419 152.305 101.247 152.702 100.912 153.493C100.45 154.572 99.8169 156.051 96.6119 157.093C92.3121 158.495 91.6996 163.106 91.6744 163.303C91.6285 163.595 91.4686 163.859 91.2283 164.038C90.988 164.218 90.6859 164.299 90.3853 164.266C90.0848 164.233 89.8092 164.087 89.6162 163.859C89.4233 163.631 89.328 163.34 89.3504 163.045C89.3797 162.791 90.139 156.793 95.8736 154.928C98.0718 154.211 98.3906 153.473 98.7514 152.612C99.1709 151.636 99.6869 150.423 102.065 149.742C102.189 149.706 102.309 149.661 102.426 149.607C102.312 149.339 102.179 149.079 102.028 148.828C101.608 148.082 101.008 147.053 101.575 146.049C102.141 145.045 103.672 144.786 104.88 144.721C110.988 144.401 113.782 144.778 118.946 150.05C120.159 151.28 121.144 152.44 122.013 153.457C124.588 156.47 125.881 157.986 129.278 157.785C131.426 157.658 131.988 157.076 132.488 156.556C133.52 155.494 134.464 155.113 136.767 155.969C138.007 156.445 139.194 157.045 140.307 157.761C141.704 158.609 142.472 159.081 144.238 158.819C144.938 158.715 145.623 158.533 146.281 158.277C146.826 158.077 147.51 157.826 148.143 158.277C148.777 158.728 148.76 159.442 148.634 160.897C148.609 161.18 148.58 161.504 148.55 161.881C148.474 163.205 148.127 164.501 147.531 165.693C147.112 166.542 146.965 166.894 147.435 168.272L148.525 171.486C148.574 171.628 148.593 171.779 148.582 171.929C148.571 172.079 148.53 172.225 148.461 172.36C148.392 172.494 148.297 172.614 148.18 172.712C148.064 172.81 147.929 172.885 147.783 172.933C147.667 172.973 147.545 172.997 147.422 173.002V173.002Z" fill="#20376A"/>
<path d="M107.284 146.902H107.154C106.851 146.871 106.572 146.725 106.378 146.495C106.184 146.264 106.091 145.969 106.118 145.672C106.118 145.553 106.441 142.708 109.818 141.663C110.795 141.36 110.888 141.179 110.892 141.171C111.081 140.761 110.275 138.863 109.419 136.842L109.386 136.76C107.527 132.366 112.524 129.558 116.538 127.303C117.787 126.648 118.984 125.904 120.121 125.077C123.611 122.29 133.964 114.952 134.384 114.64C134.508 114.546 134.65 114.476 134.801 114.436C134.953 114.397 135.112 114.387 135.267 114.408C135.423 114.43 135.572 114.481 135.707 114.56C135.842 114.639 135.959 114.744 136.051 114.868C136.144 114.993 136.21 115.134 136.245 115.283C136.281 115.433 136.285 115.588 136.258 115.739C136.23 115.89 136.172 116.035 136.087 116.164C136.001 116.292 135.89 116.403 135.76 116.489C135.651 116.563 125.033 124.101 121.597 126.844C120.365 127.753 119.062 128.567 117.7 129.279C113.472 131.648 110.548 133.505 111.534 135.875L111.567 135.957C112.981 139.294 113.623 140.819 113.002 142.106C112.54 143.069 111.534 143.496 110.514 143.811C108.681 144.377 108.45 145.726 108.417 145.861C108.388 146.139 108.257 146.397 108.049 146.588C107.841 146.779 107.569 146.891 107.284 146.902V146.902Z" fill="#20376A"/>
<path d="M91.2382 129.57L87.4417 128.709C87.3366 128.684 87.227 128.686 87.1225 128.712C87.0179 128.738 86.9216 128.789 86.8418 128.86L83.9598 131.427C83.869 131.509 83.7566 131.564 83.6352 131.587C83.5138 131.611 83.3883 131.6 83.2725 131.558C83.1567 131.515 83.0554 131.442 82.9797 131.347C82.904 131.251 82.857 131.137 82.8439 131.017L82.5125 127.225C82.5021 127.12 82.4662 127.018 82.4079 126.929C82.3495 126.84 82.2704 126.766 82.1769 126.713L78.7874 124.831C78.6788 124.771 78.5897 124.682 78.5302 124.575C78.4706 124.468 78.443 124.347 78.4504 124.225C78.4578 124.103 78.5 123.986 78.5722 123.887C78.6444 123.787 78.7436 123.71 78.8587 123.663L82.4496 122.179C82.549 122.138 82.6367 122.074 82.7053 121.992C82.7739 121.911 82.8215 121.815 82.8439 121.711L83.6284 117.981C83.6535 117.862 83.7122 117.752 83.7979 117.664C83.8836 117.576 83.9929 117.513 84.1134 117.482C84.2339 117.451 84.3608 117.454 84.4797 117.49C84.5986 117.526 84.7048 117.594 84.7862 117.686L87.341 120.556C87.4127 120.634 87.5026 120.696 87.6032 120.734C87.7039 120.773 87.8124 120.787 87.9199 120.777L91.7961 120.367C91.9198 120.353 92.0449 120.374 92.1573 120.426C92.2697 120.478 92.3648 120.56 92.4321 120.663C92.4993 120.765 92.5358 120.884 92.5376 121.005C92.5394 121.127 92.5063 121.247 92.4422 121.351L90.4285 124.61C90.3723 124.7 90.3394 124.803 90.3329 124.908C90.3263 125.014 90.3462 125.12 90.3908 125.216L92.0017 128.688C92.0475 128.799 92.0615 128.919 92.0424 129.036C92.0232 129.154 91.9714 129.264 91.8928 129.355C91.8141 129.445 91.7116 129.514 91.5962 129.551C91.4808 129.589 91.357 129.596 91.2382 129.57Z" fill="#20376A"/>
<path d="M182.253 141.659L178.457 140.798C178.352 140.774 178.242 140.775 178.138 140.801C178.033 140.828 177.937 140.879 177.857 140.95L174.975 143.516C174.884 143.598 174.772 143.654 174.65 143.677C174.529 143.7 174.403 143.69 174.288 143.647C174.172 143.605 174.07 143.532 173.995 143.436C173.919 143.34 173.872 143.226 173.859 143.106L173.528 139.314C173.517 139.209 173.481 139.107 173.423 139.018C173.365 138.929 173.286 138.855 173.192 138.802L169.803 136.92C169.694 136.86 169.605 136.771 169.545 136.664C169.486 136.557 169.458 136.436 169.466 136.314C169.473 136.192 169.515 136.075 169.587 135.976C169.66 135.876 169.759 135.799 169.874 135.752L173.465 134.268C173.565 134.226 173.653 134.161 173.721 134.079C173.79 133.997 173.837 133.9 173.859 133.796L174.644 130.07C174.668 129.95 174.727 129.839 174.813 129.75C174.899 129.661 175.009 129.597 175.13 129.566C175.251 129.536 175.379 129.539 175.498 129.576C175.618 129.612 175.724 129.681 175.806 129.775L178.356 132.644C178.428 132.723 178.518 132.784 178.618 132.823C178.719 132.861 178.827 132.876 178.935 132.866L182.811 132.456C182.935 132.443 183.06 132.464 183.172 132.517C183.284 132.57 183.379 132.652 183.446 132.755C183.513 132.857 183.55 132.976 183.552 133.098C183.554 133.219 183.521 133.339 183.457 133.444L181.444 136.703C181.388 136.794 181.356 136.896 181.35 137.002C181.343 137.107 181.362 137.213 181.406 137.309L183.017 140.778C183.061 140.888 183.074 141.008 183.054 141.124C183.034 141.241 182.983 141.351 182.904 141.441C182.826 141.531 182.724 141.599 182.61 141.638C182.495 141.676 182.372 141.683 182.253 141.659Z" fill="#20376A"/>
<path d="M115.871 169.28L112.095 168.419C111.99 168.395 111.881 168.397 111.776 168.423C111.672 168.449 111.575 168.5 111.495 168.571L108.596 171.137C108.506 171.219 108.393 171.275 108.272 171.298C108.151 171.321 108.025 171.311 107.909 171.269C107.793 171.226 107.692 171.153 107.616 171.057C107.541 170.962 107.494 170.848 107.481 170.727L107.149 166.935C107.139 166.83 107.104 166.728 107.045 166.639C106.987 166.55 106.908 166.476 106.814 166.423L103.424 164.541C103.316 164.481 103.227 164.392 103.168 164.284C103.108 164.177 103.081 164.055 103.088 163.934C103.096 163.812 103.138 163.694 103.209 163.595C103.281 163.495 103.38 163.417 103.495 163.369L107.086 161.889C107.186 161.847 107.274 161.783 107.342 161.7C107.411 161.618 107.458 161.521 107.481 161.418L108.261 157.691C108.286 157.572 108.345 157.462 108.431 157.373C108.517 157.285 108.626 157.221 108.747 157.19C108.868 157.159 108.995 157.161 109.114 157.197C109.234 157.233 109.341 157.3 109.423 157.392L111.973 160.262C112.044 160.342 112.134 160.405 112.235 160.443C112.336 160.482 112.445 160.496 112.552 160.483L116.429 160.073C116.552 160.06 116.677 160.082 116.789 160.135C116.902 160.187 116.996 160.27 117.064 160.372C117.131 160.475 117.167 160.593 117.169 160.715C117.171 160.837 117.138 160.956 117.075 161.061L115.061 164.32C115.005 164.411 114.973 164.513 114.966 164.619C114.96 164.724 114.979 164.83 115.023 164.927L116.634 168.395C116.679 168.505 116.693 168.626 116.674 168.743C116.655 168.86 116.603 168.971 116.524 169.062C116.446 169.152 116.344 169.221 116.229 169.259C116.113 169.298 115.99 169.305 115.871 169.28V169.28Z" fill="#20376A"/>
<path d="M238.928 257.281L235.152 256.416C235.046 256.393 234.936 256.396 234.831 256.423C234.726 256.45 234.629 256.501 234.548 256.572L231.666 259.138C231.575 259.218 231.462 259.273 231.342 259.295C231.221 259.317 231.096 259.307 230.981 259.265C230.865 259.222 230.764 259.15 230.688 259.055C230.613 258.961 230.565 258.847 230.55 258.728L230.219 254.932C230.209 254.827 230.173 254.726 230.115 254.637C230.057 254.549 229.977 254.475 229.883 254.424L226.494 252.538C226.385 252.478 226.296 252.389 226.236 252.282C226.177 252.175 226.149 252.054 226.157 251.932C226.164 251.81 226.206 251.693 226.279 251.594C226.351 251.494 226.45 251.417 226.565 251.37L230.156 249.89C230.255 249.847 230.343 249.782 230.411 249.7C230.48 249.618 230.527 249.522 230.55 249.418L231.335 245.688C231.361 245.569 231.42 245.459 231.506 245.371C231.592 245.283 231.702 245.22 231.822 245.189C231.943 245.159 232.07 245.162 232.189 245.197C232.308 245.233 232.415 245.301 232.497 245.393L235.047 248.262C235.118 248.343 235.208 248.405 235.309 248.443C235.41 248.482 235.519 248.496 235.626 248.484L239.502 248.074C239.626 248.061 239.751 248.082 239.863 248.135C239.975 248.188 240.07 248.27 240.137 248.373C240.204 248.475 240.241 248.594 240.243 248.716C240.245 248.837 240.212 248.957 240.148 249.062L238.135 252.321C238.079 252.411 238.047 252.514 238.04 252.619C238.034 252.725 238.053 252.831 238.097 252.927L239.708 256.395C239.755 256.507 239.769 256.63 239.749 256.749C239.729 256.868 239.676 256.98 239.595 257.072C239.515 257.163 239.41 257.231 239.292 257.268C239.174 257.305 239.048 257.309 238.928 257.281V257.281Z" fill="#20376A"/>
<path opacity="0.5" d="M140.21 87.1006C140.038 87.1018 139.868 87.0656 139.712 86.9947C139.556 86.9238 139.418 86.82 139.309 86.6907L129.522 75.2122C129.34 74.9778 129.258 74.6842 129.293 74.3924C129.327 74.1006 129.475 73.8329 129.706 73.6447C129.937 73.4566 130.233 73.3624 130.533 73.3818C130.833 73.4011 131.113 73.5325 131.317 73.7487L141.104 85.2272C141.245 85.3939 141.335 85.5963 141.364 85.811C141.392 86.0257 141.357 86.2438 141.264 86.4401C141.17 86.6363 141.021 86.8025 140.835 86.9194C140.649 87.0364 140.432 87.0992 140.21 87.1006Z" fill="#20376A"/>
<path opacity="0.5" d="M162.133 87.0675C161.923 87.0673 161.717 87.012 161.536 86.9075C161.356 86.8029 161.207 86.6529 161.106 86.4731L148.818 64.6114C148.683 64.3468 148.657 64.0409 148.747 63.7583C148.838 63.4757 149.037 63.2382 149.302 63.096C149.568 62.9537 149.88 62.9176 150.172 62.9953C150.464 63.0731 150.715 63.2586 150.87 63.5128L163.157 85.3745C163.231 85.5058 163.278 85.6501 163.295 85.7991C163.312 85.9481 163.298 86.0989 163.255 86.2428C163.212 86.3868 163.141 86.521 163.045 86.6379C162.949 86.7548 162.83 86.852 162.696 86.924C162.524 87.0181 162.33 87.0675 162.133 87.0675Z" fill="#20376A"/>
<path opacity="0.5" d="M227.84 95.2339C227.598 95.2343 227.362 95.1615 227.165 95.0257C226.967 94.8899 226.817 94.6976 226.736 94.4753C226.655 94.253 226.646 94.0115 226.71 93.784C226.775 93.5565 226.91 93.3542 227.097 93.2047L238.919 83.7476C239.037 83.6468 239.174 83.5703 239.323 83.5225C239.472 83.4746 239.629 83.4565 239.785 83.4691C239.941 83.4817 240.093 83.5249 240.232 83.596C240.371 83.6671 240.494 83.7647 240.593 83.883C240.693 84.0013 240.767 84.138 240.811 84.2848C240.856 84.4317 240.869 84.5857 240.852 84.7379C240.834 84.89 240.785 85.0371 240.708 85.1705C240.631 85.3039 240.528 85.4208 240.404 85.5144L228.574 94.9716C228.368 95.1404 228.108 95.2333 227.84 95.2339Z" fill="#20376A"/>
<path opacity="0.5" d="M208.325 91.3515C208.103 91.351 207.887 91.2891 207.7 91.173C207.513 91.0568 207.363 90.8913 207.269 90.6955C207.175 90.4998 207.139 90.2818 207.166 90.0671C207.193 89.8523 207.282 89.6495 207.423 89.4822L223.708 70.2726C223.905 70.0394 224.19 69.8924 224.498 69.8639C224.806 69.8355 225.114 69.9279 225.352 70.1209C225.591 70.3139 225.741 70.5916 225.771 70.893C225.8 71.1943 225.705 71.4947 225.508 71.7279L209.227 90.9375C209.117 91.0675 208.98 91.1721 208.824 91.2437C208.668 91.3154 208.497 91.3522 208.325 91.3515V91.3515Z" fill="#20376A"/>
<path opacity="0.5" d="M179.757 62.5535C179.454 62.5537 179.162 62.4388 178.944 62.2332C178.726 62.0275 178.598 61.747 178.587 61.4508L178.49 58.725C178.494 58.4312 178.613 58.15 178.823 57.9398C179.033 57.7295 179.318 57.6064 179.619 57.5958C179.919 57.5853 180.212 57.6882 180.437 57.8831C180.662 58.0781 180.802 58.3502 180.827 58.643L180.928 61.3689C180.938 61.6719 180.825 61.9666 180.613 62.1886C180.402 62.4106 180.109 62.5418 179.799 62.5535H179.757Z" fill="#20376A"/>
<path opacity="0.5" d="M180.68 87.7319C180.378 87.7321 180.087 87.6176 179.87 87.4127C179.652 87.2078 179.524 86.9283 179.513 86.6333L178.985 72.2856C178.979 72.1356 179.004 71.986 179.058 71.8454C179.112 71.7048 179.193 71.5759 179.298 71.4662C179.403 71.3565 179.529 71.2681 179.669 71.2061C179.809 71.1442 179.96 71.1098 180.113 71.105C180.267 71.0979 180.42 71.1208 180.565 71.1725C180.709 71.2241 180.842 71.3035 180.954 71.4058C181.067 71.5082 181.157 71.6315 181.22 71.7685C181.283 71.9055 181.318 72.0535 181.321 72.2037L181.85 86.5513C181.856 86.7013 181.831 86.8509 181.777 86.9915C181.723 87.1321 181.642 87.261 181.537 87.3707C181.432 87.4804 181.306 87.5688 181.166 87.6308C181.026 87.6928 180.875 87.7271 180.722 87.7319H180.68Z" fill="#20376A"/>
<path opacity="0.5" d="M195.102 89.191C194.959 89.1927 194.816 89.1677 194.683 89.1172C194.538 89.066 194.405 88.9873 194.292 88.8856C194.179 88.7839 194.087 88.6613 194.023 88.5248C193.958 88.3882 193.922 88.2406 193.917 88.0904C193.911 87.9401 193.936 87.7904 193.99 87.6497L196.692 80.5128C196.74 80.3658 196.818 80.2299 196.922 80.1132C197.025 79.9965 197.152 79.9014 197.294 79.8338C197.436 79.7661 197.59 79.7273 197.748 79.7196C197.906 79.7119 198.063 79.7354 198.212 79.7889C198.36 79.8423 198.495 79.9245 198.61 80.0305C198.725 80.1366 198.817 80.2642 198.88 80.4058C198.943 80.5473 198.976 80.6999 198.977 80.8543C198.978 81.0086 198.947 81.1616 198.886 81.304L196.184 88.4408C196.103 88.6582 195.956 88.8463 195.763 88.9803C195.569 89.1142 195.339 89.1877 195.102 89.191Z" fill="#20376A"/>
<path opacity="0.5" d="M251.228 314.389C250.961 314.389 250.703 314.299 250.496 314.136C250.288 313.973 250.144 313.745 250.087 313.491L246.814 298.91C246.782 298.761 246.779 298.608 246.807 298.458C246.835 298.309 246.893 298.166 246.977 298.038C247.061 297.911 247.171 297.8 247.299 297.714C247.427 297.627 247.571 297.566 247.723 297.534C247.875 297.502 248.032 297.5 248.185 297.527C248.338 297.554 248.484 297.611 248.614 297.693C248.745 297.776 248.858 297.883 248.946 298.008C249.035 298.133 249.097 298.273 249.13 298.422L252.402 313.003C252.468 313.299 252.412 313.607 252.245 313.862C252.078 314.116 251.815 314.296 251.513 314.36C251.42 314.383 251.324 314.392 251.228 314.389V314.389Z" fill="#20376A"/>
<path opacity="0.5" d="M229.082 314.897C228.776 314.898 228.483 314.781 228.264 314.573C228.046 314.364 227.919 314.081 227.911 313.782L227.316 288.871C227.303 288.716 227.323 288.56 227.374 288.412C227.426 288.265 227.507 288.13 227.614 288.014C227.72 287.899 227.85 287.806 227.995 287.741C228.139 287.676 228.296 287.641 228.455 287.638C228.614 287.634 228.772 287.662 228.92 287.72C229.068 287.778 229.202 287.865 229.314 287.976C229.426 288.086 229.513 288.218 229.572 288.362C229.63 288.507 229.657 288.662 229.652 288.817L230.252 313.729C230.256 313.879 230.23 314.028 230.174 314.168C230.119 314.308 230.036 314.436 229.93 314.545C229.824 314.653 229.697 314.741 229.557 314.801C229.416 314.862 229.265 314.894 229.111 314.897H229.082Z" fill="#20376A"/>
<path opacity="0.5" d="M159.088 256.195C158.802 256.19 158.528 256.083 158.317 255.894C158.106 255.705 157.974 255.447 157.944 255.169C157.915 254.891 157.991 254.612 158.157 254.385C158.324 254.158 158.57 253.998 158.849 253.936L173.804 250.869C173.958 250.828 174.119 250.818 174.277 250.84C174.435 250.862 174.587 250.915 174.723 250.996C174.859 251.077 174.977 251.185 175.069 251.312C175.161 251.439 175.226 251.584 175.259 251.736C175.292 251.889 175.292 252.046 175.261 252.199C175.229 252.352 175.166 252.497 175.075 252.625C174.984 252.753 174.867 252.862 174.731 252.944C174.596 253.026 174.444 253.081 174.286 253.104L159.331 256.17C159.251 256.186 159.17 256.195 159.088 256.195Z" fill="#20376A"/>
<path opacity="0.5" d="M166.014 275.072C165.743 275.072 165.481 274.981 165.272 274.814C165.063 274.648 164.919 274.415 164.865 274.156C164.811 273.897 164.851 273.628 164.977 273.395C165.103 273.161 165.308 272.978 165.556 272.875L189.074 263.164C189.216 263.096 189.371 263.058 189.53 263.052C189.688 263.045 189.846 263.069 189.994 263.124C190.142 263.179 190.277 263.262 190.391 263.369C190.505 263.476 190.596 263.605 190.658 263.747C190.72 263.889 190.752 264.042 190.751 264.197C190.751 264.352 190.718 264.505 190.656 264.647C190.593 264.789 190.502 264.917 190.387 265.023C190.272 265.13 190.137 265.213 189.988 265.266L166.488 274.982C166.338 275.044 166.176 275.075 166.014 275.072Z" fill="#20376A"/>
<path opacity="0.5" d="M200.086 306.244C199.912 306.243 199.74 306.205 199.583 306.133C199.303 306.002 199.088 305.769 198.984 305.484C198.88 305.199 198.896 304.886 199.029 304.612L200.229 302.153C200.282 302 200.368 301.86 200.48 301.742C200.593 301.624 200.73 301.53 200.883 301.468C201.035 301.405 201.199 301.375 201.364 301.379C201.529 301.382 201.692 301.42 201.841 301.49C201.99 301.56 202.122 301.659 202.229 301.783C202.336 301.906 202.415 302.05 202.461 302.205C202.506 302.36 202.518 302.523 202.495 302.683C202.472 302.842 202.414 302.996 202.326 303.132L201.126 305.592C201.032 305.784 200.885 305.947 200.701 306.062C200.517 306.177 200.304 306.24 200.086 306.244V306.244Z" fill="#20376A"/>
<path opacity="0.5" d="M206.043 293.995C205.869 293.994 205.697 293.956 205.54 293.884C205.26 293.754 205.045 293.521 204.941 293.235C204.837 292.95 204.854 292.637 204.986 292.363L211.278 279.385C211.431 279.148 211.668 278.974 211.944 278.896C212.219 278.818 212.514 278.842 212.773 278.963C213.032 279.084 213.236 279.293 213.347 279.552C213.458 279.81 213.468 280.099 213.376 280.364L207.083 293.343C206.989 293.535 206.842 293.698 206.658 293.813C206.474 293.929 206.261 293.991 206.043 293.995V293.995Z" fill="#20376A"/>
<path opacity="0.5" d="M194.477 278.348C194.241 278.349 194.01 278.28 193.815 278.15C193.62 278.02 193.47 277.836 193.384 277.621C193.299 277.406 193.282 277.17 193.336 276.946C193.391 276.721 193.513 276.518 193.688 276.363L199.456 271.243C199.687 271.048 199.988 270.948 200.293 270.966C200.598 270.984 200.884 271.118 201.089 271.339C201.295 271.56 201.404 271.851 201.392 272.149C201.381 272.448 201.251 272.73 201.03 272.936L195.261 278.052C195.048 278.244 194.767 278.35 194.477 278.348V278.348Z" fill="#20376A"/>
<path opacity="0.5" d="M202.322 68.9036C201.658 68.9036 201.009 68.7112 200.457 68.3509C199.905 67.9905 199.475 67.4783 199.221 66.8791C198.967 66.2798 198.901 65.6204 199.03 64.9842C199.16 64.3481 199.479 63.7637 199.949 63.305C200.418 62.8464 201.016 62.534 201.667 62.4075C202.318 62.281 202.993 62.3459 203.606 62.5941C204.219 62.8423 204.744 63.2627 205.112 63.802C205.481 64.3413 205.678 64.9754 205.678 65.624C205.678 66.4938 205.324 67.328 204.695 67.943C204.066 68.5581 203.212 68.9036 202.322 68.9036ZM202.322 64.632C202.12 64.6312 201.923 64.6889 201.754 64.7979C201.586 64.9068 201.455 65.0621 201.377 65.2441C201.299 65.426 201.278 65.6264 201.317 65.8199C201.356 66.0135 201.453 66.1913 201.595 66.3311C201.738 66.4708 201.919 66.5661 202.117 66.6048C202.315 66.6436 202.52 66.6241 202.707 66.5489C202.893 66.4736 203.053 66.3459 203.165 66.182C203.277 66.0181 203.337 65.8253 203.337 65.6281C203.337 65.365 203.23 65.1127 203.04 64.9266C202.849 64.7406 202.591 64.6361 202.322 64.6361V64.632Z" fill="#20376A"/>
<path opacity="0.5" d="M185.458 288.501C184.794 288.501 184.145 288.309 183.593 287.949C183.041 287.588 182.611 287.076 182.357 286.477C182.103 285.878 182.037 285.218 182.166 284.582C182.296 283.946 182.615 283.362 183.085 282.903C183.554 282.444 184.152 282.132 184.803 282.006C185.454 281.879 186.129 281.944 186.742 282.192C187.355 282.44 187.879 282.861 188.248 283.4C188.617 283.939 188.814 284.573 188.814 285.222C188.814 286.092 188.46 286.926 187.831 287.541C187.202 288.156 186.348 288.501 185.458 288.501ZM185.458 284.234C185.257 284.234 185.061 284.292 184.894 284.401C184.727 284.51 184.597 284.665 184.52 284.846C184.443 285.028 184.423 285.227 184.462 285.42C184.501 285.612 184.598 285.789 184.74 285.928C184.882 286.066 185.063 286.161 185.26 286.199C185.457 286.237 185.661 286.218 185.846 286.143C186.032 286.067 186.19 285.94 186.302 285.777C186.413 285.614 186.473 285.422 186.473 285.226C186.473 284.963 186.366 284.711 186.176 284.525C185.985 284.339 185.727 284.234 185.458 284.234Z" fill="#20376A"/>
</svg>
