<svg viewBox="0 0 371 362" fill="none" xmlns="http://www.w3.org/2000/svg">
<path opacity="0.3" d="M174.866 361.868C271.191 361.868 349.277 282.331 349.277 184.218C349.277 86.1055 271.191 6.56927 174.866 6.56927C78.5409 6.56927 0.454102 86.1055 0.454102 184.218C0.454102 282.331 78.5409 361.868 174.866 361.868Z" fill="#E7EEF9"/>
<path opacity="0.3" d="M192.976 361.868C290.994 361.868 370.454 280.934 370.454 181.098C370.454 81.2616 290.994 0.328247 192.976 0.328247C94.9573 0.328247 15.4976 81.2616 15.4976 181.098C15.4976 280.934 94.9573 361.868 192.976 361.868Z" fill="#E7EEF9"/>
<path d="M125.356 196.001C125.425 196.113 125.516 196.208 125.625 196.282C125.735 196.356 125.859 196.406 125.989 196.43C126.12 196.453 126.254 196.449 126.383 196.417C126.512 196.386 126.633 196.327 126.737 196.247C137.602 187.916 139.083 187.298 147.682 184.906C163.229 180.575 171.061 197.919 167.361 204.762C160.561 217.334 127.19 234.143 127.697 233.448C127.697 233.448 98.8231 226.683 88.9648 212.299C81.1243 200.848 93.0004 182.067 108.22 186.092C120.004 189.204 124.102 193.997 125.356 196.001Z" fill="#C7976A"/>
<path d="M124.534 134.556C124.534 134.556 103.828 110.459 135.487 81.3066C135.487 81.3066 154.365 108.986 125.805 139.002" fill="#49BD9A"/>
<path d="M131.523 156.224C131.523 156.224 140.966 124.053 184.066 136.274C184.066 136.274 170.474 168.8 128.36 159.856" fill="#49BD9A"/>
<path d="M123.628 152.24C123.628 152.24 103.291 155.827 96.3311 138.061C96.3311 138.061 118.615 129.178 123.338 148.776" fill="#49BD9A"/>
<path d="M211.079 239.687C210.868 239.685 210.663 239.627 210.484 239.52C210.305 239.412 210.159 239.259 210.062 239.077C209.916 238.803 209.882 238.485 209.966 238.186C210.05 237.888 210.246 237.632 210.516 237.468L348.914 159.336C349.047 159.261 349.195 159.213 349.348 159.195C349.502 159.178 349.657 159.191 349.805 159.234C349.952 159.277 350.09 159.349 350.208 159.445C350.326 159.541 350.423 159.66 350.493 159.795C350.639 160.069 350.673 160.387 350.589 160.686C350.505 160.984 350.309 161.24 350.039 161.403L211.641 239.54C211.47 239.636 211.276 239.687 211.079 239.687Z" fill="#20376A"/>
<path d="M183.658 256.608C179.967 256.608 176.906 255.297 174.143 254.11C171.094 252.804 168.461 251.674 165.568 252.473C158.518 254.372 148.939 250.606 146.071 247.92C144.606 246.545 144.014 244.285 144.488 241.878C144.908 239.749 146.05 238.103 147.461 237.583C148.62 237.174 150.758 237.317 154.151 237.612C157.271 237.886 161.155 238.226 162.62 237.612C165.795 236.257 176.532 231.962 181.21 230.82C187.476 229.297 197.764 233.608 200.762 234.967C206.746 237.677 215.392 237.518 215.459 237.518H215.484C215.806 237.514 216.116 237.636 216.346 237.855C216.576 238.075 216.707 238.375 216.711 238.688C216.714 239.002 216.589 239.304 216.364 239.529C216.139 239.753 215.831 239.881 215.51 239.884C215.136 239.884 206.271 240.06 199.8 237.133C193.963 234.488 186.149 232.048 181.744 233.125C177.456 234.169 167.105 238.263 163.511 239.794C161.52 240.645 157.669 240.306 153.949 239.978C151.736 239.786 148.986 239.544 148.251 239.814C147.722 240.011 147.041 240.944 146.764 242.348C146.521 243.577 146.626 245.214 147.642 246.184C149.741 248.141 158.383 251.969 164.968 250.192C168.629 249.206 171.745 250.54 175.046 251.953C178.346 253.365 181.765 254.818 186.077 254.045C186.38 253.997 186.689 254.068 186.939 254.241C187.189 254.414 187.359 254.676 187.413 254.97C187.471 255.273 187.405 255.586 187.229 255.843C187.053 256.099 186.782 256.278 186.472 256.341C185.545 256.515 184.603 256.604 183.658 256.608Z" fill="#20376A"/>
<path d="M124.067 237.632H123.361L123.277 237.464C119.103 236.425 93.7315 229.625 84.3588 215.951C80.4451 210.24 80.8021 202.322 85.27 195.78C88.9234 190.429 95.9948 185.545 104.88 187.899C115.668 190.765 120.275 195.072 122.064 197.393L123.029 197.803L122.135 197.393C124.436 192.321 129.694 179.102 129.097 165.796C129.013 165.44 128.736 164.261 128.35 162.443C125.734 150.19 120.396 120.636 127.287 110.86C127.373 110.735 127.484 110.628 127.613 110.546C127.743 110.464 127.888 110.409 128.04 110.384C128.192 110.358 128.348 110.363 128.498 110.399C128.648 110.434 128.789 110.499 128.913 110.59C129.158 110.781 129.322 111.056 129.371 111.359C129.42 111.662 129.351 111.972 129.177 112.227C122.647 121.48 128.631 152.602 130.622 161.919C131.075 164.04 131.377 165.313 131.382 165.326L131.411 165.551C132.012 177.796 127.817 189.914 125.188 196.194C132.238 191.035 136.526 188.726 143.778 186.708C150.858 184.735 157.442 186.868 161.834 192.554C165.685 197.532 166.957 204.304 164.799 208.299C161.184 214.977 150.589 222.55 142.337 227.729C135.085 232.277 125.209 237.632 124.067 237.632ZM100.362 189.652C94.4831 189.652 89.8136 193.246 87.1681 197.115C83.2628 202.846 82.9059 209.691 86.2568 214.579C95.26 227.717 121.169 234.488 124.075 235.213C127.791 233.723 156.686 218.383 162.762 207.153C164.471 203.993 163.262 198.22 160.008 194.016C157.782 191.15 152.789 186.647 144.387 188.984C135.778 191.383 131.873 193.926 120.199 202.904C119.846 203.211 115.16 207.284 113.224 210.404C113.147 210.534 113.044 210.647 112.921 210.737C112.798 210.828 112.657 210.892 112.507 210.927C112.358 210.963 112.202 210.968 112.05 210.942C111.898 210.917 111.754 210.862 111.624 210.78C111.361 210.604 111.177 210.337 111.108 210.033C111.04 209.729 111.092 209.411 111.255 209.143C113.438 205.597 118.515 201.25 118.729 201.07C119.471 200.496 120.187 199.951 120.875 199.432C120.624 199.276 120.404 199.078 120.224 198.847C118.62 196.759 114.413 192.857 104.267 190.18C102.995 189.835 101.682 189.658 100.362 189.652Z" fill="#20376A"/>
<path d="M143.568 165.084C139.408 165.06 135.273 164.462 131.286 163.307C131.12 163.259 130.967 163.177 130.838 163.065C130.709 162.953 130.606 162.815 130.538 162.66C130.431 162.906 130.238 163.106 129.993 163.226C129.749 163.345 129.468 163.375 129.203 163.311C128.934 163.236 128.699 163.073 128.539 162.85C128.379 162.626 128.304 162.355 128.325 162.083C128.346 161.645 128.993 151.259 138.483 143.46C147.864 135.755 162.259 133.438 181.273 136.574C181.452 136.603 181.622 136.673 181.768 136.779C181.914 136.884 182.032 137.021 182.113 137.18C182.198 137.34 182.246 137.517 182.253 137.697C182.261 137.878 182.227 138.057 182.155 138.224C179.231 144.341 175.138 149.858 170.095 154.481C164.342 159.725 155.532 165.084 143.568 165.084ZM131.596 160.99C131.7 160.991 131.803 161.006 131.903 161.035C145.815 164.953 158.123 162.181 168.478 152.798C172.887 148.731 176.557 143.965 179.333 138.703C161.805 136.062 148.57 138.293 139.978 145.31C136.555 148.122 133.911 151.728 132.289 155.795C135.647 152.11 140.104 149.54 145.034 148.446C145.187 148.422 145.344 148.429 145.494 148.465C145.645 148.501 145.787 148.565 145.912 148.655C146.036 148.745 146.141 148.859 146.221 148.989C146.3 149.119 146.352 149.263 146.373 149.412C146.431 149.716 146.365 150.029 146.188 150.285C146.011 150.541 145.739 150.718 145.429 150.78C145.332 150.78 136.245 152.524 131.386 161.015C131.455 160.997 131.525 160.986 131.596 160.982V160.99Z" fill="#20376A"/>
<path d="M127.502 152.986C127.272 152.984 127.048 152.916 126.858 152.789C126.668 152.662 126.521 152.483 126.436 152.274C125.029 148.999 120.435 147.84 120.389 147.832C120.083 147.751 119.821 147.557 119.66 147.291C119.498 147.025 119.449 146.708 119.524 146.408C119.554 146.259 119.615 146.118 119.702 145.993C119.789 145.868 119.901 145.761 120.032 145.679C120.162 145.597 120.308 145.541 120.461 145.515C120.614 145.489 120.771 145.493 120.922 145.527C121.157 145.585 126.7 146.96 128.565 151.328C128.684 151.614 128.688 151.934 128.577 152.223C128.466 152.512 128.247 152.749 127.964 152.888C127.819 152.952 127.662 152.986 127.502 152.986Z" fill="#20376A"/>
<path d="M126.712 140.34C126.561 140.339 126.412 140.309 126.274 140.252C126.136 140.194 126.01 140.11 125.906 140.005C125.684 139.781 125.558 139.484 125.553 139.173C125.547 138.862 125.663 138.561 125.876 138.33C138.612 124.943 144.26 110.467 142.673 95.299C142.028 89.0807 140.136 83.0466 137.105 77.5396C123.882 90.1079 117.788 103.675 119.435 116.841C120.715 126.998 126.153 133.405 126.191 133.467C126.393 133.707 126.494 134.013 126.474 134.323C126.453 134.633 126.313 134.924 126.082 135.137C125.968 135.241 125.833 135.321 125.686 135.372C125.538 135.423 125.382 135.444 125.226 135.433C125.07 135.421 124.918 135.379 124.78 135.308C124.642 135.236 124.52 135.138 124.423 135.018C124.184 134.736 118.486 128.001 117.112 117.136C115.853 107.155 118.208 91.7127 136.559 74.8089L137.537 73.9042L138.293 75.0095C138.512 75.3289 143.664 83.0009 144.945 94.8978C146.125 105.857 144.063 122.565 127.531 139.931C127.431 140.051 127.306 140.149 127.165 140.219C127.024 140.29 126.87 140.331 126.712 140.34Z" fill="#20376A"/>
<path d="M122.673 155.332C114.912 155.332 100.282 153.134 94.16 137.511C94.0408 137.22 94.0408 136.894 94.16 136.603C94.2803 136.317 94.5111 136.089 94.8024 135.968C95.3609 135.747 108.58 130.584 118.625 135.89C123.475 138.453 126.725 143.014 128.283 149.449C128.362 149.748 128.318 150.064 128.161 150.332C128.005 150.6 127.747 150.797 127.443 150.882C127.292 150.917 127.136 150.922 126.983 150.897C126.831 150.872 126.684 150.818 126.554 150.737C126.423 150.656 126.31 150.55 126.222 150.426C126.134 150.302 126.072 150.162 126.04 150.014C124.655 144.283 121.812 140.23 117.583 137.994C110.075 134.023 100.123 136.693 96.8013 137.777C104.969 156.335 126.385 152.823 127.313 152.663C127.466 152.639 127.623 152.644 127.774 152.68C127.925 152.716 128.067 152.781 128.192 152.871C128.316 152.961 128.422 153.074 128.501 153.204C128.58 153.335 128.631 153.479 128.652 153.629C128.708 153.932 128.641 154.244 128.464 154.5C128.288 154.755 128.016 154.933 127.708 154.996C126.041 155.236 124.357 155.348 122.673 155.332Z" fill="#20376A"/>
<path d="M303.122 250.078C302.843 250.073 302.574 249.971 302.365 249.791C302.156 249.611 302.019 249.364 301.979 249.095C301.921 248.793 301.987 248.48 302.163 248.224C302.339 247.968 302.611 247.79 302.92 247.728C308.165 246.79 314.447 245.55 321.59 244.043C321.742 244.014 321.899 244.014 322.05 244.045C322.202 244.075 322.347 244.134 322.474 244.22C322.602 244.305 322.712 244.415 322.795 244.542C322.879 244.669 322.936 244.811 322.963 244.96C323.029 245.262 322.972 245.576 322.804 245.838C322.637 246.099 322.371 246.286 322.064 246.36C314.896 247.875 308.589 249.116 303.323 250.045C303.257 250.062 303.19 250.073 303.122 250.078Z" fill="#20376A"/>
<path d="M137.135 293.559C136.711 293.582 136.286 293.54 135.875 293.436C132.608 292.302 106.955 281.867 101.585 274.338C99.6235 271.591 87.1938 251.789 89.6462 244.801C89.8243 244.226 90.1488 243.706 90.5894 243.287C91.03 242.868 91.5723 242.565 92.1657 242.406C97.1292 241.088 102.311 249.042 106.863 256.067C109.08 259.473 111.176 262.687 112.603 263.776C114.657 265.348 121.136 266.932 126.343 268.206C130.076 269.119 133.297 269.905 135.161 270.662C135.49 270.799 135.851 270.844 136.204 270.794C136.558 270.743 136.89 270.598 137.165 270.375C155.943 255.228 172.707 251.609 173.412 251.466C173.564 251.436 173.721 251.437 173.873 251.467C174.025 251.498 174.169 251.558 174.296 251.644C174.424 251.73 174.533 251.84 174.616 251.967C174.699 252.095 174.755 252.238 174.781 252.387C174.847 252.688 174.789 253.003 174.621 253.264C174.452 253.524 174.186 253.711 173.878 253.783C173.71 253.82 156.922 257.467 138.605 272.23C138.012 272.711 137.295 273.023 136.532 273.133C135.769 273.243 134.99 273.146 134.28 272.852C132.6 272.152 129.295 271.346 125.81 270.494C119.834 269.033 113.657 267.522 111.218 265.659C109.471 264.325 107.367 261.099 104.919 257.365C101.19 251.633 96.0794 243.79 92.741 244.674C92.5165 244.727 92.3112 244.839 92.1475 244.997C91.9838 245.156 91.8681 245.356 91.813 245.574C90.1333 250.393 99.3086 267.141 103.436 272.926C108.156 279.534 131.873 289.531 136.61 291.177C138.542 291.627 159.555 288.466 186.749 282.645C217.256 276.115 238.996 269.761 246.432 265.209C247.692 264.198 262.524 252.604 290.302 249.615C291.981 249.435 293.942 249.169 296.159 248.833C296.314 248.813 296.47 248.822 296.62 248.861C296.771 248.9 296.912 248.968 297.035 249.06C297.158 249.153 297.261 249.269 297.338 249.4C297.414 249.532 297.464 249.678 297.482 249.828C297.533 250.132 297.459 250.444 297.276 250.696C297.093 250.947 296.815 251.118 296.504 251.171C294.257 251.515 292.25 251.785 290.545 251.99C262.851 254.966 247.978 266.998 247.831 267.137C247.79 267.171 247.747 267.201 247.701 267.227C236.858 273.929 201.476 281.965 186.766 285.097C166.37 289.437 143.144 293.559 137.135 293.559Z" fill="#20376A"/>
<path d="M146.024 202.711C145.615 202.728 145.209 202.626 144.86 202.416C144.511 202.207 144.234 201.9 144.065 201.536C143.896 201.172 143.843 200.766 143.912 200.372C143.982 199.979 144.17 199.614 144.454 199.325C144.738 199.037 145.104 198.838 145.505 198.754C145.905 198.67 146.323 198.705 146.703 198.854C147.084 199.003 147.409 199.26 147.639 199.591C147.868 199.923 147.99 200.314 147.99 200.713C148 201.232 147.799 201.734 147.43 202.108C147.062 202.483 146.556 202.699 146.024 202.711ZM146.024 199.894C145.857 199.887 145.691 199.929 145.548 200.014C145.405 200.1 145.291 200.225 145.222 200.374C145.153 200.522 145.131 200.688 145.159 200.849C145.187 201.01 145.263 201.16 145.379 201.278C145.495 201.396 145.645 201.478 145.808 201.513C145.972 201.547 146.143 201.533 146.299 201.473C146.454 201.412 146.588 201.307 146.682 201.172C146.776 201.036 146.826 200.877 146.826 200.713C146.827 200.502 146.743 200.299 146.594 200.147C146.445 199.994 146.241 199.904 146.024 199.894Z" fill="#20376A"/>
<path d="M147.41 196.546C147.05 196.561 146.694 196.471 146.386 196.288C146.079 196.104 145.835 195.835 145.686 195.515C145.537 195.195 145.49 194.839 145.55 194.492C145.611 194.146 145.776 193.825 146.025 193.571C146.274 193.317 146.596 193.141 146.948 193.067C147.3 192.992 147.667 193.022 148.002 193.153C148.336 193.283 148.623 193.509 148.825 193.8C149.028 194.091 149.136 194.434 149.136 194.785C149.145 195.241 148.969 195.683 148.645 196.012C148.322 196.342 147.878 196.534 147.41 196.546ZM147.41 194.208C147.292 194.203 147.175 194.233 147.075 194.293C146.974 194.354 146.894 194.442 146.846 194.547C146.797 194.652 146.782 194.769 146.802 194.882C146.821 194.996 146.876 195.101 146.957 195.184C147.039 195.267 147.145 195.325 147.26 195.349C147.376 195.373 147.496 195.363 147.606 195.321C147.715 195.278 147.809 195.204 147.875 195.108C147.942 195.013 147.977 194.901 147.977 194.785C147.979 194.711 147.966 194.637 147.938 194.568C147.91 194.499 147.869 194.436 147.816 194.382C147.764 194.329 147.701 194.286 147.631 194.256C147.561 194.226 147.486 194.21 147.41 194.208Z" fill="#20376A"/>
<path opacity="0.5" d="M65.6816 166.042C65.4655 166.04 65.2542 165.979 65.0716 165.866C64.8891 165.753 64.7426 165.593 64.6486 165.403C64.5095 165.126 64.4828 164.807 64.5739 164.511C64.6649 164.215 64.867 163.964 65.1399 163.807L78.5984 156.642C78.7331 156.571 78.8812 156.526 79.034 156.512C79.1867 156.497 79.3409 156.513 79.4872 156.558C79.6336 156.603 79.769 156.677 79.8854 156.774C80.0018 156.872 80.0968 156.991 80.1647 157.125C80.3038 157.403 80.3305 157.721 80.2394 158.017C80.1483 158.313 79.9462 158.565 79.6734 158.722L66.2149 165.89C66.0532 165.984 65.8697 166.036 65.6816 166.042Z" fill="#20376A"/>
<path opacity="0.5" d="M59.3911 144.541C59.1365 144.536 58.8904 144.451 58.6897 144.298C58.489 144.145 58.3447 143.933 58.2783 143.693C58.1889 143.396 58.2207 143.077 58.367 142.802C58.5134 142.528 58.763 142.319 59.0636 142.219L83.3855 134.85C83.5341 134.808 83.6899 134.796 83.8436 134.813C83.9973 134.831 84.1459 134.878 84.2805 134.952C84.4152 135.027 84.5331 135.127 84.6275 135.246C84.7219 135.366 84.7908 135.503 84.83 135.649C84.9204 135.945 84.889 136.264 84.7425 136.538C84.5959 136.813 84.3457 137.021 84.0448 137.118L59.7229 144.487C59.6156 144.521 59.5038 144.539 59.3911 144.541Z" fill="#20376A"/>
<path opacity="0.5" d="M105.662 73.9779C105.445 73.9768 105.232 73.9159 105.048 73.8022C104.865 73.6885 104.718 73.5266 104.625 73.3352L97.7087 59.5633C97.5719 59.2847 97.5478 58.9661 97.6412 58.6709C97.7346 58.3758 97.9386 58.1258 98.2126 57.9707C98.3494 57.9007 98.4995 57.8585 98.6536 57.8466C98.8076 57.8347 98.9626 57.8535 99.109 57.9017C99.2555 57.9499 99.3903 58.0266 99.5055 58.1272C99.6206 58.2277 99.7136 58.35 99.7789 58.4866L106.695 72.2585C106.832 72.5371 106.856 72.8557 106.763 73.1508C106.669 73.446 106.465 73.696 106.191 73.851C106.028 73.9337 105.846 73.9772 105.662 73.9779Z" fill="#20376A"/>
<path opacity="0.5" d="M97.6961 92.4414C97.5187 92.4408 97.3439 92.3997 97.1857 92.3215C97.0275 92.2433 96.8902 92.1302 96.7849 91.9911L81.1092 71.669C80.9205 71.4189 80.836 71.1085 80.8726 70.8001C80.9092 70.4917 81.0643 70.2083 81.3065 70.0069C81.425 69.9111 81.5624 69.8401 81.7102 69.7981C81.858 69.7562 82.0131 69.7442 82.1658 69.763C82.3185 69.7818 82.4656 69.831 82.5981 69.9074C82.7305 69.9839 82.8455 70.086 82.9358 70.2075L98.6115 90.5296C98.8002 90.7796 98.8847 91.0901 98.8481 91.3985C98.8115 91.7068 98.6564 91.9902 98.4142 92.1917C98.2112 92.3526 97.9577 92.4408 97.6961 92.4414Z" fill="#20376A"/>
<path opacity="0.5" d="M63.0528 114.368C62.9836 114.37 62.9145 114.363 62.847 114.348L60.1133 113.848C59.8045 113.784 59.5336 113.605 59.3587 113.349C59.1837 113.092 59.1185 112.78 59.1769 112.477C59.1994 112.327 59.2523 112.183 59.3326 112.053C59.4128 111.924 59.5188 111.811 59.6444 111.722C59.7699 111.633 59.9125 111.569 60.0636 111.534C60.2148 111.499 60.3716 111.494 60.5249 111.519L63.2585 112.018C63.5677 112.084 63.8386 112.264 64.0135 112.521C64.1884 112.778 64.2535 113.091 64.195 113.394C64.1525 113.661 64.0148 113.906 63.8059 114.084C63.597 114.262 63.3303 114.363 63.0528 114.368Z" fill="#20376A"/>
<path opacity="0.5" d="M88.2813 118.978C88.2129 118.984 88.144 118.984 88.0756 118.978L73.6933 116.35C73.3837 116.281 73.114 116.097 72.9421 115.837C72.7702 115.577 72.7097 115.261 72.7736 114.958C72.7961 114.808 72.849 114.664 72.9293 114.535C73.0096 114.405 73.1157 114.293 73.2414 114.204C73.367 114.115 73.5096 114.052 73.6607 114.017C73.8119 113.983 73.9686 113.978 74.1216 114.004L88.5039 116.632C88.8127 116.697 89.0836 116.876 89.2586 117.132C89.4336 117.388 89.4988 117.701 89.4403 118.004C89.3982 118.274 89.2582 118.521 89.0457 118.7C88.8331 118.879 88.562 118.977 88.2813 118.978Z" fill="#20376A"/>
<path opacity="0.5" d="M92.7622 105.035C92.5411 105.034 92.3251 104.969 92.1408 104.85L85.611 100.629C85.3501 100.451 85.1682 100.183 85.102 99.879C85.0357 99.5751 85.0901 99.2581 85.254 98.9917C85.3326 98.8621 85.4374 98.7495 85.562 98.6607C85.6866 98.5718 85.8284 98.5086 85.9789 98.4749C86.1293 98.4412 86.2852 98.4377 86.4371 98.4647C86.589 98.4916 86.7337 98.5483 86.8623 98.6314L93.3879 102.869C93.6488 103.047 93.8307 103.315 93.8969 103.619C93.9632 103.923 93.9088 104.24 93.7449 104.506C93.6412 104.669 93.4964 104.803 93.3243 104.896C93.1523 104.988 92.9587 105.036 92.7622 105.035Z" fill="#20376A"/>
<path opacity="0.5" d="M63.712 99.7655C63.4818 99.7657 63.2536 99.7226 63.0401 99.6386C62.7173 99.5057 62.4387 99.2879 62.2355 99.0096C62.0324 98.7313 61.9126 98.4033 61.8895 98.0624L61.5788 94.3779L58.4378 92.5602C58.1367 92.3822 57.8916 92.1268 57.7294 91.8221C57.5672 91.5174 57.4941 91.175 57.5182 90.8325C57.533 90.4908 57.6448 90.1598 57.8413 89.8764C58.0378 89.593 58.3112 89.3685 58.6309 89.2277L61.9567 87.7948L62.6874 84.1922C62.7497 83.8574 62.907 83.5464 63.1416 83.2946C63.3762 83.0427 63.6786 82.8601 64.0143 82.7675C64.3458 82.6808 64.6958 82.6896 65.0222 82.7928C65.3486 82.8959 65.6374 83.0891 65.8536 83.3488L68.222 86.1327L71.8123 85.7233C72.1545 85.6868 72.5002 85.7469 72.8084 85.8964C73.1166 86.0459 73.3743 86.2785 73.5508 86.5666C73.7362 86.8616 73.8364 87.1999 73.8408 87.5458C73.8452 87.8917 73.7537 88.2324 73.576 88.5317L71.7115 91.6841L73.2022 95.0329C73.3445 95.3497 73.3962 95.698 73.3519 96.0411C73.3075 96.3842 73.1688 96.7092 72.9503 96.9816C72.7411 97.2479 72.4572 97.4492 72.1329 97.5611C71.8086 97.673 71.458 97.6907 71.1236 97.6121L67.6047 96.7933L64.9382 99.2701C64.6105 99.5835 64.171 99.7611 63.712 99.7655ZM60.466 91.029L62.9561 92.4742C63.217 92.6283 63.4362 92.841 63.5954 93.0945C63.7547 93.3481 63.8494 93.6351 63.8716 93.9316L64.1151 96.8383L66.2357 94.8732C66.4493 94.6711 66.7118 94.5249 66.9989 94.4483C67.286 94.3717 67.5883 94.3672 67.8776 94.4352L70.6701 95.0943L69.4859 92.4414C69.3638 92.1657 69.3094 91.8659 69.3269 91.566C69.3444 91.2661 69.4333 90.9743 69.5867 90.7138L71.0648 88.2124L68.2178 88.5358C67.9208 88.5687 67.6201 88.5282 67.3435 88.418C67.0668 88.3078 66.8231 88.1315 66.6347 87.9054L64.7618 85.6987L64.1823 88.5645C64.1258 88.8557 63.9983 89.1294 63.8104 89.3624C63.6226 89.5954 63.38 89.7809 63.1031 89.9032L60.466 91.029Z" fill="#20376A"/>
</svg>
