<svg viewBox="0 0 371 363" fill="none" xmlns="http://www.w3.org/2000/svg">
<path opacity="0.3" d="M176.061 362.441C273.099 362.441 351.763 281.318 351.763 181.248C351.763 81.1773 273.099 0.0543213 176.061 0.0543213C79.0242 0.0543213 0.359863 81.1773 0.359863 181.248C0.359863 281.318 79.0242 362.441 176.061 362.441Z" fill="#E7EEF9"/>
<path opacity="0.3" d="M194.658 362.441C291.695 362.441 370.36 281.318 370.36 181.248C370.36 81.1773 291.695 0.0543213 194.658 0.0543213C97.6206 0.0543213 18.9563 81.1773 18.9563 181.248C18.9563 281.318 97.6206 362.441 194.658 362.441Z" fill="#E7EEF9"/>
<path d="M186.092 102.847C204.915 77.2991 238.643 83.6245 238.643 117.194C238.643 150.764 186.092 177.968 186.092 177.968C186.092 177.968 133.544 150.756 133.544 117.19C133.544 83.6245 164.109 79.0249 186.092 102.847Z" fill="#EB6E75"/>
<path d="M131.799 343.342C131.502 343.335 131.217 343.22 131.002 343.019C130.787 342.818 130.657 342.546 130.637 342.255L119.31 227.333V227.243C119.31 226.968 120.393 199.662 102.463 184.925C99.5266 182.518 91.1113 174.984 89.2068 173.065C87.7773 171.519 86.4477 169.887 85.2256 168.179C83.9671 166.518 82.4192 164.452 81.7689 164.079C81.5088 163.932 80.7327 163.952 79.8308 164.489C79.0673 164.932 78.2367 165.76 78.2073 166.744C78.136 169.076 80.4517 176.127 84.5377 179.009C89.2235 182.313 93.8045 196.432 94.3121 198.031L94.5345 198.736L94.0269 199.256C92.1852 201.158 89.6347 199.945 88.5397 199.035L88.4307 198.928C88.3426 198.838 79.5875 189.5 63.4491 183.592C62.8528 183.362 62.3286 182.983 61.9289 182.494C61.5292 182.004 61.268 181.42 61.1712 180.801C60.9488 179.46 60.156 177.029 59.3212 174.459C57.8697 169.999 56.3846 165.391 56.565 163.013C56.7076 161.304 57.8739 158.652 59.2247 155.581C61.1292 151.256 64.0028 144.722 62.308 143.074C62.2307 142.989 62.1294 142.928 62.0167 142.898C61.904 142.869 61.785 142.873 61.6746 142.91C58.3185 143.672 51.682 155.868 49.6683 161.029C47.5456 166.457 50.5703 185.425 51.4177 189.291C52.714 191.34 68.5797 207.963 78.1024 217.941C86.5806 226.821 88.7537 229.116 89.0432 229.555C90.7967 232.252 89.4249 237.262 88.2041 241.681C87.7737 243.099 87.4333 244.542 87.1847 246.002C86.7401 249.691 74.3688 325.53 73.8445 328.752C73.824 328.904 73.7725 329.051 73.6931 329.184C73.6137 329.316 73.5079 329.432 73.382 329.524C73.2562 329.616 73.1127 329.683 72.9602 329.72C72.8076 329.757 72.649 329.764 72.4936 329.74C72.1804 329.676 71.9053 329.494 71.7267 329.235C71.5481 328.975 71.4801 328.658 71.5372 328.35C71.663 327.563 84.4244 249.359 84.8607 245.706C85.1222 244.125 85.4865 242.561 85.9514 241.025C86.9162 237.5 88.2377 232.67 87.0883 230.899C86.6939 230.387 81.706 225.16 76.4244 219.63C53.5572 195.677 49.3998 191.037 49.1565 189.971C48.5441 187.282 44.8944 166.748 47.4785 160.127C48.4014 157.758 55.7721 141.77 61.1502 140.553C61.6354 140.432 62.1447 140.439 62.6261 140.574C63.1075 140.708 63.5436 140.966 63.8896 141.319C66.8009 144.148 64.0238 150.465 61.3348 156.577C60.177 159.205 58.9814 161.907 58.8765 163.218C58.7213 165.096 60.2692 169.859 61.5152 173.692C62.4213 176.468 63.1932 178.87 63.4575 180.391C63.4891 180.596 63.5755 180.79 63.7081 180.953C63.8406 181.115 64.0146 181.241 64.2126 181.317C80.3342 187.237 89.1187 196.227 90.0332 197.194C90.2345 197.346 91.0568 197.916 91.7615 197.842C90.1968 193.16 86.3751 183.244 83.1952 181.002C78.266 177.521 75.7532 169.708 75.8497 166.654C75.9 164.969 76.953 163.374 78.6604 162.378C80.1748 161.493 81.7983 161.341 82.8932 161.968C83.9042 162.554 85.1334 164.145 87.0505 166.695C88.2104 168.316 89.4713 169.866 90.8261 171.335C92.6509 173.172 101.083 180.719 103.902 183.035C122.436 198.264 121.723 225.16 121.635 227.288L132.961 342.034C132.999 342.344 132.911 342.656 132.716 342.903C132.52 343.15 132.233 343.312 131.917 343.354L131.799 343.342Z" fill="#20376A"/>
<path d="M133.096 356.464C132.799 356.458 132.515 356.343 132.3 356.143C132.085 355.943 131.954 355.671 131.934 355.382L131.187 347.831C131.148 347.52 131.235 347.208 131.431 346.96C131.627 346.713 131.914 346.551 132.231 346.511C132.388 346.497 132.546 346.514 132.696 346.561C132.846 346.608 132.985 346.684 133.104 346.784C133.224 346.884 133.322 347.006 133.392 347.144C133.463 347.281 133.505 347.431 133.515 347.585L134.258 355.136C134.296 355.446 134.208 355.759 134.012 356.007C133.817 356.254 133.53 356.417 133.213 356.46L133.096 356.464Z" fill="#20376A"/>
<path d="M280.304 329.744C280.021 329.738 279.75 329.633 279.538 329.449C279.327 329.265 279.19 329.014 279.151 328.74C278.626 325.514 266.255 249.695 265.81 245.989C265.56 244.53 265.22 243.087 264.791 241.669C263.583 237.249 262.211 232.24 263.952 229.543C264.237 229.104 266.41 226.808 274.893 217.921C284.416 207.947 300.277 191.336 301.573 189.278C302.412 185.413 305.45 166.445 303.327 161.017C301.309 155.856 294.681 143.66 291.321 142.898C291.21 142.86 291.091 142.855 290.978 142.884C290.865 142.914 290.764 142.975 290.687 143.062C289.009 144.701 291.866 151.26 293.766 155.569C295.121 158.639 296.283 161.308 296.426 163.001C296.623 165.379 295.126 169.97 293.674 174.443C292.835 177.017 292.046 179.448 291.824 180.788C291.726 181.407 291.465 181.991 291.065 182.48C290.666 182.97 290.142 183.349 289.546 183.58C273.37 189.516 264.653 198.822 264.565 198.916L264.451 199.022C263.361 199.933 260.81 201.146 258.968 199.244L258.461 198.723L258.683 198.018C259.191 196.419 263.772 182.301 268.453 178.997C272.539 176.127 274.859 169.064 274.788 166.732C274.759 165.748 273.949 164.92 273.164 164.477C272.258 163.948 271.486 163.928 271.222 164.067C270.572 164.444 269.02 166.527 267.77 168.166C266.546 169.874 265.215 171.506 263.784 173.053C261.884 174.971 253.46 182.506 250.532 184.912C232.602 199.67 233.672 226.956 233.685 227.23V227.321V227.411L229.049 274.476C229.039 274.63 228.998 274.78 228.927 274.918C228.857 275.056 228.759 275.179 228.64 275.279C228.52 275.38 228.381 275.456 228.231 275.503C228.081 275.55 227.923 275.568 227.765 275.554C227.449 275.511 227.163 275.349 226.968 275.102C226.772 274.856 226.684 274.544 226.721 274.234L231.356 227.288C231.273 225.181 230.559 198.285 249.089 183.059C251.908 180.743 260.34 173.196 262.165 171.36C263.52 169.89 264.781 168.34 265.941 166.719C267.862 164.169 269.087 162.579 270.102 161.993C271.197 161.361 272.82 161.513 274.335 162.403C276.042 163.395 277.095 164.993 277.146 166.678C277.238 169.72 274.729 177.533 269.796 181.026C266.616 183.269 262.798 193.185 261.234 197.866C261.93 197.944 262.756 197.37 262.962 197.219C263.881 196.243 272.665 187.261 288.783 181.342C288.981 181.266 289.155 181.14 289.287 180.977C289.42 180.815 289.506 180.621 289.538 180.415C289.794 178.894 290.574 176.492 291.476 173.713C292.734 169.884 294.274 165.104 294.119 163.243C294.014 161.948 292.814 159.23 291.66 156.602C288.971 150.49 286.207 144.173 289.106 141.344C289.452 140.99 289.888 140.733 290.369 140.598C290.851 140.463 291.36 140.456 291.845 140.577C297.219 141.807 304.59 157.795 305.517 160.152C308.105 166.773 304.455 187.306 303.839 189.996C303.595 191.061 299.442 195.702 276.571 219.651C271.293 225.148 266.293 230.375 265.873 230.924C264.749 232.658 266.066 237.483 267.031 241.013C267.498 242.548 267.862 244.112 268.122 245.694C268.541 249.347 281.32 327.551 281.45 328.338C281.507 328.646 281.438 328.964 281.259 329.224C281.079 329.483 280.803 329.664 280.489 329.728C280.428 329.739 280.366 329.744 280.304 329.744V329.744Z" fill="#20376A"/>
<path d="M219.899 356.464H219.782C219.465 356.422 219.177 356.26 218.981 356.012C218.786 355.764 218.698 355.451 218.737 355.14L225.852 283.04C225.862 282.888 225.902 282.74 225.971 282.603C226.039 282.467 226.135 282.345 226.252 282.244C226.369 282.144 226.505 282.068 226.652 282.019C226.8 281.971 226.956 281.951 227.111 281.962C227.427 282.003 227.714 282.165 227.91 282.412C228.105 282.659 228.194 282.972 228.155 283.282L221.024 355.369C221.006 355.655 220.881 355.924 220.674 356.125C220.467 356.327 220.191 356.447 219.899 356.464Z" fill="#20376A"/>
<path d="M179.631 177.275C179.448 177.276 179.268 177.232 179.107 177.148C169.695 172.028 160.82 166.02 152.607 159.209C135.134 144.582 125.901 129.398 125.901 115.296C125.901 101.059 131.489 90.5894 141.238 86.572C152.691 81.8454 167.6 86.7729 179.522 99.1244C189.2 86.7688 203.53 81.2879 215.566 85.4693C226.696 89.335 233.336 100.485 233.336 115.296C233.336 129.398 224.107 144.582 206.631 159.209C198.422 166.021 189.55 172.03 180.143 177.152C179.985 177.233 179.809 177.275 179.631 177.275V177.275ZM150.509 87.2074C147.631 87.1871 144.778 87.7322 142.119 88.8103C133.179 92.4998 128.254 101.904 128.254 115.296C128.254 145.956 174.173 171.757 179.635 174.738C185.089 171.778 231.016 145.976 231.016 115.317C231.016 101.592 224.967 91.2945 214.836 87.7773C203.405 83.8049 189.632 89.417 180.567 101.715C180.468 101.853 180.338 101.967 180.188 102.05C180.038 102.132 179.87 102.18 179.698 102.191C179.528 102.201 179.357 102.172 179.199 102.107C179.041 102.043 178.9 101.944 178.788 101.818C170.125 92.4178 159.738 87.2074 150.509 87.2074Z" fill="#20376A"/>
<path opacity="0.5" d="M135.617 77.3934C135.46 77.3948 135.304 77.3646 135.16 77.3046C135.015 77.2447 134.885 77.1563 134.777 77.045L123.925 65.952C123.706 65.7196 123.584 65.4152 123.584 65.0993C123.584 64.7833 123.706 64.479 123.925 64.2466C124.03 64.1351 124.158 64.046 124.3 63.9851C124.442 63.9243 124.596 63.8928 124.751 63.8928C124.907 63.8928 125.06 63.9243 125.202 63.9851C125.345 64.046 125.472 64.1351 125.578 64.2466L136.435 75.3396C136.655 75.5711 136.778 75.8758 136.778 76.1923C136.778 76.5088 136.655 76.8135 136.435 77.045C136.329 77.1542 136.203 77.2413 136.062 77.3012C135.921 77.3611 135.77 77.3925 135.617 77.3934V77.3934Z" fill="#20376A"/>
<path opacity="0.5" d="M157.444 75.2208C157.249 75.2197 157.059 75.1707 156.889 75.0782C156.72 74.9858 156.577 74.8529 156.474 74.6919L142.119 52.9118C141.94 52.6476 141.873 52.3262 141.931 52.0147C141.989 51.7031 142.167 51.4254 142.429 51.2392C142.555 51.1497 142.699 51.0867 142.851 51.0542C143.003 51.0218 143.16 51.0205 143.313 51.0506C143.466 51.0806 143.61 51.1414 143.738 51.2289C143.865 51.3164 143.972 51.4288 144.053 51.559L158.404 73.3391C158.583 73.6034 158.65 73.9247 158.592 74.2363C158.534 74.5478 158.356 74.8256 158.094 75.0117C157.905 75.1467 157.677 75.2199 157.444 75.2208V75.2208Z" fill="#20376A"/>
<path opacity="0.5" d="M223.645 77.3934C223.488 77.3943 223.332 77.363 223.187 77.3016C223.043 77.2402 222.913 77.15 222.806 77.0368C222.585 76.8053 222.463 76.5006 222.463 76.1841C222.463 75.8676 222.585 75.5629 222.806 75.3314L233.663 64.2384C233.768 64.1269 233.896 64.0379 234.039 63.977C234.181 63.9161 234.334 63.8846 234.49 63.8846C234.645 63.8846 234.799 63.9161 234.941 63.977C235.083 64.0379 235.211 64.1269 235.316 64.2384C235.537 64.4699 235.66 64.7746 235.66 65.0911C235.66 65.4076 235.537 65.7123 235.316 65.9438L224.468 77.045C224.362 77.1543 224.234 77.2415 224.093 77.3014C223.952 77.3613 223.799 77.3926 223.645 77.3934V77.3934Z" fill="#20376A"/>
<path opacity="0.5" d="M203.841 75.2208C203.605 75.2214 203.376 75.1481 203.186 75.0117C202.924 74.8256 202.746 74.5478 202.688 74.2363C202.63 73.9247 202.697 73.6034 202.876 73.3391L217.21 51.559C217.291 51.4288 217.398 51.3164 217.526 51.2289C217.653 51.1414 217.798 51.0806 217.95 51.0506C218.103 51.0205 218.26 51.0218 218.412 51.0542C218.564 51.0867 218.708 51.1497 218.834 51.2392C219.096 51.4254 219.275 51.7031 219.332 52.0147C219.39 52.3262 219.323 52.6476 219.144 52.9118L204.793 74.6919C204.691 74.8503 204.551 74.9815 204.385 75.0738C204.219 75.1661 204.032 75.2166 203.841 75.2208V75.2208Z" fill="#20376A"/>
<path opacity="0.5" d="M172.613 47.7343C172.322 47.7276 172.044 47.6173 171.83 47.4239C171.617 47.2306 171.484 46.9677 171.455 46.6848L171.09 43.8152C171.043 43.5058 171.122 43.1905 171.31 42.9375C171.498 42.6845 171.781 42.5138 172.097 42.4624C172.253 42.446 172.411 42.4597 172.561 42.503C172.712 42.5463 172.852 42.6181 172.974 42.7145C173.096 42.8109 173.197 42.9298 173.272 43.0645C173.347 43.1993 173.394 43.3471 173.41 43.4996L173.771 46.3692C173.818 46.6786 173.739 46.9939 173.551 47.2469C173.362 47.4999 173.08 47.6706 172.764 47.722C172.714 47.7301 172.663 47.7342 172.613 47.7343V47.7343Z" fill="#20376A"/>
<path opacity="0.5" d="M175.969 74.1137C175.678 74.1053 175.401 73.9943 175.188 73.8014C174.975 73.6084 174.841 73.3465 174.811 73.0642L172.898 58.0278C172.851 57.7183 172.93 57.4031 173.118 57.1501C173.306 56.897 173.589 56.7264 173.905 56.675C174.061 56.658 174.219 56.6714 174.369 56.7144C174.52 56.7574 174.661 56.8293 174.783 56.9257C174.905 57.0222 175.006 57.1414 175.081 57.2764C175.156 57.4113 175.202 57.5595 175.218 57.7122L177.131 72.7404C177.178 73.0503 177.099 73.3661 176.911 73.6198C176.723 73.8735 176.44 74.0449 176.124 74.0973L175.969 74.1137Z" fill="#20376A"/>
<path opacity="0.5" d="M190.471 74.2371C190.369 74.2376 190.267 74.2238 190.169 74.1961C189.863 74.1012 189.606 73.8955 189.45 73.6211C189.294 73.3467 189.251 73.0244 189.33 72.7203L191.34 64.9517C191.373 64.8025 191.437 64.6614 191.527 64.5368C191.618 64.4123 191.733 64.3069 191.866 64.2269C191.999 64.1469 192.148 64.094 192.302 64.0713C192.457 64.0486 192.615 64.0567 192.766 64.0949C193.072 64.1898 193.33 64.3956 193.486 64.6699C193.641 64.9443 193.684 65.2666 193.605 65.5707L191.621 73.3393C191.561 73.5938 191.415 73.8211 191.206 73.9841C190.997 74.1471 190.738 74.2363 190.471 74.2371V74.2371Z" fill="#20376A"/>
<path opacity="0.5" d="M192.678 57.1833C192.447 57.1838 192.219 57.1392 192.007 57.0521C191.68 56.9167 191.398 56.695 191.193 56.4119C190.988 56.1288 190.867 55.7955 190.845 55.4493L190.534 51.7147L187.375 49.8618C187.071 49.6793 186.824 49.4189 186.661 49.1089C186.497 48.7989 186.424 48.4511 186.448 48.1032C186.461 47.7554 186.573 47.418 186.771 47.1285C186.969 46.839 187.245 46.6088 187.568 46.4634L190.924 45.0041L191.658 41.3146C191.72 40.9752 191.878 40.6595 192.114 40.4031C192.349 40.1467 192.654 39.9598 192.993 39.8634C193.327 39.7741 193.681 39.7828 194.011 39.8884C194.341 39.9941 194.631 40.1921 194.847 40.4578L197.225 43.2905L200.837 42.8806C201.184 42.8418 201.534 42.9026 201.845 43.0555C202.157 43.2084 202.416 43.4468 202.591 43.7414C202.778 44.0421 202.879 44.3864 202.884 44.7383C202.888 45.0903 202.796 45.4369 202.616 45.7419L200.732 48.9641L202.23 52.3788C202.372 52.7016 202.424 53.0555 202.38 53.4043C202.336 53.7531 202.197 54.084 201.978 54.3629C201.77 54.6336 201.484 54.8387 201.158 54.953C200.832 55.0674 200.478 55.086 200.141 55.0066L196.6 54.158L193.915 56.6832C193.584 56.9996 193.141 57.1788 192.678 57.1833V57.1833ZM189.414 48.2836L191.931 49.7511C192.195 49.9095 192.416 50.1272 192.577 50.386C192.737 50.6448 192.832 50.9373 192.854 51.2392L193.102 54.199L195.233 52.1985C195.446 51.9919 195.71 51.8424 195.999 51.7641C196.289 51.6859 196.594 51.6816 196.885 51.7516L199.696 52.4239L198.505 49.7142C198.381 49.4336 198.325 49.1286 198.343 48.8233C198.36 48.518 198.45 48.2209 198.605 47.9556L200.095 45.4099L197.229 45.7378C196.93 45.7716 196.627 45.7306 196.348 45.6188C196.069 45.507 195.824 45.3279 195.635 45.0983L193.748 42.8478L193.164 45.7624C193.109 46.0576 192.982 46.3355 192.794 46.5724C192.605 46.8094 192.361 46.9984 192.082 47.1234L189.414 48.2836Z" fill="#20376A"/>
</svg>
