<svg width="83" height="30" viewBox="0 0 83 30" fill="none" xmlns="http://www.w3.org/2000/svg">
<g clip-path="url(#clip0)">
<path d="M82.9706 8.82008C82.9004 7.22607 82.6426 6.1302 82.2733 5.18061C81.8924 4.17264 81.3064 3.27022 80.5385 2.52002C79.7883 1.75816 78.88 1.16615 77.8837 0.79117C76.9286 0.421912 75.8384 0.16414 74.2444 0.0938599C72.6385 0.0176273 72.1287 0 68.0556 0C63.9826 0 63.4728 0.0176273 61.8728 0.0879078C60.2788 0.158188 59.1829 0.416188 58.2336 0.785218C57.2254 1.16615 56.3229 1.7522 55.5728 2.52002C54.8109 3.27022 54.2191 4.1786 53.8439 5.17488C53.4746 6.1302 53.2169 7.22011 53.1466 8.81413C53.0704 10.42 53.0527 10.9299 53.0527 15.0029C53.0527 19.076 53.0704 19.5858 53.1406 21.1858C53.2109 22.7798 53.4689 23.8757 53.8382 24.8253C54.2191 25.8332 54.8109 26.7356 55.5728 27.4858C56.3229 28.2477 57.2313 28.8397 58.2276 29.2147C59.1829 29.584 60.2728 29.8417 61.8671 29.912C63.4668 29.9825 63.9769 29.9999 68.0499 29.9999C72.123 29.9999 72.6328 29.9825 74.2328 29.912C75.8268 29.8417 76.9226 29.584 77.872 29.2147C79.8882 28.4352 81.4822 26.8412 82.2617 24.8253C82.6307 23.8699 82.8887 22.7798 82.959 21.1858C83.0292 19.5858 83.0469 19.076 83.0469 15.0029C83.0469 10.9299 83.0409 10.42 82.9706 8.82008ZM80.2691 21.0686C80.2045 22.5337 79.9584 23.3249 79.7533 23.8523C79.2492 25.1593 78.212 26.1965 76.905 26.7006C76.3776 26.9057 75.5807 27.1518 74.1213 27.2162C72.5389 27.2867 72.0644 27.3041 68.0616 27.3041C64.0588 27.3041 63.5783 27.2867 62.0017 27.2162C60.5366 27.1518 59.7454 26.9057 59.2179 26.7006C58.5676 26.4602 57.9756 26.0793 57.495 25.5812C56.9969 25.0947 56.616 24.5086 56.3756 23.8583C56.1705 23.3308 55.9244 22.5337 55.8601 21.0745C55.7895 19.4922 55.7721 19.0174 55.7721 15.0146C55.7721 11.0118 55.7895 10.5313 55.8601 8.95492C55.9244 7.48979 56.1705 6.69862 56.3756 6.17117C56.616 5.52056 56.9969 4.92879 57.501 4.44804C57.9872 3.9499 58.5733 3.56896 59.2239 3.32882C59.7513 3.1237 60.5485 2.87761 62.0076 2.81305C63.59 2.74277 64.0648 2.72514 68.0673 2.72514C72.076 2.72514 72.5506 2.74277 74.1272 2.81305C75.5924 2.87761 76.3835 3.1237 76.911 3.32882C77.5613 3.56896 78.1533 3.9499 78.6339 4.44804C79.132 4.93451 79.5129 5.52056 79.7533 6.17117C79.9584 6.69862 80.2045 7.49551 80.2691 8.95492C80.3394 10.5373 80.357 11.0118 80.357 15.0146C80.357 19.0174 80.3394 19.4862 80.2691 21.0686Z" fill="black" fill-opacity="0.77"/>
<path d="M68.0557 7.29639C63.8011 7.29639 60.3491 10.7481 60.3491 15.003C60.3491 19.2578 63.8011 22.7096 68.0557 22.7096C72.3105 22.7096 75.7623 19.2578 75.7623 15.003C75.7623 10.7481 72.3105 7.29639 68.0557 7.29639ZM68.0557 20.002C65.2955 20.002 63.0566 17.7634 63.0566 15.003C63.0566 12.2426 65.2955 10.0039 68.0557 10.0039C70.8161 10.0039 73.0548 12.2426 73.0548 15.003C73.0548 17.7634 70.8161 20.002 68.0557 20.002Z" fill="black" fill-opacity="0.77"/>
<path d="M77.8662 6.99177C77.8662 7.98531 77.0606 8.79091 76.0668 8.79091C75.0733 8.79091 74.2677 7.98531 74.2677 6.99177C74.2677 5.99799 75.0733 5.19263 76.0668 5.19263C77.0606 5.19263 77.8662 5.99799 77.8662 6.99177Z" fill="black" fill-opacity="0.77"/>
</g>
<path d="M27.4953 0.922852H2.47398C1.61722 0.923367 0.92268 1.61825 0.922852 2.47536V27.4967C0.923367 28.3535 1.61825 29.048 2.47536 29.0479H15.9467V18.1714H12.2937V13.9142H15.9467V10.7812C15.9467 7.14798 18.1647 5.17044 21.4057 5.17044C22.958 5.17044 24.292 5.28614 24.6808 5.33781V9.13513H22.4459C20.6826 9.13513 20.3412 9.97301 20.3412 11.2028V13.9142H24.5572L24.0079 18.1714H20.3412V29.0479H27.4953C28.3526 29.048 29.0477 28.3533 29.0479 27.496C29.0479 27.4959 29.0479 27.4957 29.0479 27.4953V2.47398C29.0475 1.61722 28.3525 0.92268 27.4953 0.922852Z" fill="black" fill-opacity="0.77"/>
<defs>
<clipPath id="clip0">
<rect width="30" height="30" fill="white" transform="translate(53)"/>
</clipPath>
</defs>
</svg>
